<svg width="543" height="562" xmlns="http://www.w3.org/2000/svg" xmlns:xlink="http://www.w3.org/1999/xlink">
    <defs>
        <path id="a" d="M0 0h396.946v564.771H0z"/>
    </defs>
    <g fill="none" fill-rule="evenodd">
        <path fill="#DCF7F2" d="M-75.746 562.294H603.37v-576H-75.746z"/>
        <path d="M376.994 265.826c-6.111-10.337-5.524-24.246 1.437-34.032 6.962-9.785 19.912-14.907 31.687-12.532-3.88-4.192-3.643-11.51.496-15.444-13.704-15.41-11.22-40.065-.659-57.774 18.324-30.72 59.09-45.947 93.076-34.765-1.419-12.568 9.129-25.213 21.752-26.08-5.429-6.79-6.337-16.428-3.948-24.786 2.388-8.358 7.693-15.6 13.67-21.913 19.54-20.644 50.998-33.03 77.032-21.607l.374 489.167c-29.002-5.933-57.91 12.238-87.356 9.193-29.185-3.018-53.698-23.051-73.591-44.61a362.995 362.995 0 0 1-35.958-45.873c-7.653-11.569-14.72-23.762-18.329-37.153-4.723-17.515-3.281-36.018-4.78-54.095-1.795-21.658-3.842-48.986-14.903-67.696" fill="#F5FDFF"/>
        <g transform="translate(-92.77 -14)">
            <mask id="b" fill="#fff">
                <use xlink:href="#a"/>
            </mask>
            <path d="M396.946 327.992c0-26.748-25.5-48.781-58.356-51.814 4.64-7.135 7.273-15.215 7.273-23.785 0-16.61-9.843-31.395-25.162-40.953 11.073-11.675 17.632-26.173 17.632-41.88 0-38.636-39.68-69.955-88.63-69.955-34.664 0-64.658 15.716-79.225 38.605-9.93-11.563-26.044-19.548-44.592-20.997 6.548-10.724 10.218-22.75 10.218-35.452C136.104 36.606 89.727 0 32.518 0 21.153 0 10.229 1.465 0 4.133v503.03c12.856 28.662 51.486 48.873 90.507 54.9 64.013 9.888 129.472-8.796 187.733-31.947 15.728-6.25 31.574-13.056 43.331-23.402 25.171-22.15 26.27-55.202 22.133-84.776-1.967-14.066-4.804-28.025-8.218-41.905 34.339-1.887 61.46-24.457 61.46-52.041" fill="#F5FDFF" mask="url(#b)"/>
        </g>
        <path d="M323.576 380.904h-79.118V265.976c0-15.688 12.724-28.405 28.419-28.405h46.964a3.736 3.736 0 0 1 3.735 3.734v139.599zM14.298 386.224h-78.564v-113.92c0-15.689 12.725-28.407 28.42-28.407h46.407a3.736 3.736 0 0 1 3.737 3.736v138.59z" fill="#C6DBD7"/>
        <path d="M397.288 372.4h-79.12V232.802a3.736 3.736 0 0 1 3.737-3.734h41.402c18.767 0 33.98 15.206 33.98 33.964V372.4zM196.602 375.751h-64.09V264.92a3.736 3.736 0 0 1 3.737-3.736h26.373c18.766 0 33.98 15.207 33.98 33.965v80.602zM582.898 387.36H467.01V250.041a3.736 3.736 0 0 1 3.736-3.734h108.415a3.736 3.736 0 0 1 3.737 3.734V387.36z" fill="#C6DBD7"/>
        <path fill="#E4EDEB" d="M478.846 273.439h11.586v-11.581h-11.586zM505.032 273.439h11.585v-11.581h-11.585zM531.216 273.439h11.586v-11.581h-11.586zM478.846 301.465h11.586v-11.58h-11.586zM505.032 301.465h11.585v-11.58h-11.585zM342.784 257.735h11.773v-11.768h-11.773zM369.392 257.735h11.774v-11.768h-11.774zM342.784 292.919h11.773V281.15h-11.773zM369.392 292.919h11.774V281.15h-11.774zM342.784 328.102h11.773v-11.768h-11.773zM281.933 269.638h11.773V257.87h-11.773zM281.933 299.873h11.773v-11.768h-11.773zM369.392 328.102h11.774v-11.768h-11.774zM531.216 301.465h11.586v-11.58h-11.586zM478.846 329.492h11.586V317.91h-11.586zM505.032 329.492h11.585V317.91h-11.585zM531.216 329.492h11.586V317.91h-11.586z"/>
        <path fill="#F9EDD4" d="M-12.064 374.946H42.95V180.819h-55.014z"/>
        <path fill="#DDCCA6" d="M22.123 374.946H42.95V180.819H22.123z"/>
        <path fill="#DBCCB2" d="M-14.517 180.82h59.92v-4.65h-59.92z"/>
        <path fill="#B5A079" d="M-14.517 180.82h38.792v-4.65h-38.792z"/>
        <path d="M130.188 214.953H37.642V198.74c0-.934.758-1.692 1.693-1.692h89.16c.935 0 1.693.758 1.693 1.692v16.214z" fill="#F9EDD4"/>
        <path d="M40.815 214.953H37.64v-16.241c0-.92.746-1.665 1.665-1.665h1.509v17.906z" fill="#CCB78D"/>
        <path fill="#6DD3F7" d="M37.641 348.458h92.547V218.33H37.64z"/>
        <path fill="#5DC6E2" d="M37.641 235.235v113.222h84.55zM130.188 325.362v-22.754L64.61 218.33H46.34z"/>
        <path fill="#F9EDD4" d="M34.58 235.439h98.152v-5.508H34.58zM34.58 251.769h98.152v-5.51H34.58zM34.58 268.098h98.152v-5.508H34.58zM34.58 284.429h98.152v-5.508H34.58zM34.58 300.76h98.152v-5.508H34.58z"/>
        <path fill="#CCB78D" d="M44.702 235.439h3.58v-5.508h-3.58zM44.702 251.769h3.58v-5.51h-3.58zM44.702 268.098h3.58v-5.508h-3.58zM44.702 284.429h3.58v-5.508h-3.58zM44.702 300.76h3.58v-5.508h-3.58zM102.144 235.439h3.58v-5.508h-3.58zM102.144 251.769h3.58v-5.51h-3.58zM102.144 268.098h3.58v-5.508h-3.58zM102.144 284.429h3.58v-5.508h-3.58zM102.144 300.76h3.58v-5.508h-3.58z"/>
        <path fill="#F9EDD4" d="M34.58 366.673h98.152v-52.627H34.58z"/>
        <path fill="#CCB78D" d="M34.58 317.86h98.152v-3.813H34.58zM34.58 345.262h98.152v-3.813H34.58z"/>
        <path fill="#D8C7A3" d="M102.38 366.673h2.369V339.91h-2.37z"/>
        <path d="M70.892 366.673H49.479v-17.51a2.594 2.594 0 0 1 2.594-2.593h16.225a2.594 2.594 0 0 1 2.594 2.593v17.51zM100.315 366.673H78.902v-17.51a2.594 2.594 0 0 1 2.594-2.593H97.72a2.594 2.594 0 0 1 2.594 2.593v17.51z" fill="#5DC6E2"/>
        <path fill="#F9EDD4" d="M104.33 312.68h17.724v-94.664h-17.725zM46.734 312.68h17.724v-94.664H46.734z"/>
        <path d="M131.732 219.358H36.098a.945.945 0 0 1-.946-.945v-4.28c0-.522.423-.945.946-.945h95.634c.523 0 .946.423.946.946v4.279a.945.945 0 0 1-.946.945M138.662 315.92H29.167a.945.945 0 0 1-.946-.946v-4.279c0-.522.423-.945.946-.945h109.495c.523 0 .947.423.947.945v4.28a.946.946 0 0 1-.947.945M138.662 342.384H29.167a.946.946 0 0 1-.946-.947v-4.278c0-.522.423-.945.946-.945h109.495c.523 0 .947.423.947.945v4.278a.947.947 0 0 1-.947.947" fill="#DBCCB2"/>
        <path d="M52.15 219.358H30.819a.945.945 0 0 1-.946-.945v-4.28c0-.522.423-.945.946-.945H52.15c.522 0 .946.423.946.946v4.279a.945.945 0 0 1-.946.945M53.801 315.92H29.167a.945.945 0 0 1-.946-.946v-4.279c0-.522.423-.945.946-.945h24.634c.523 0 .946.423.946.945v4.28a.945.945 0 0 1-.946.945M53.801 342.384H29.167a.946.946 0 0 1-.946-.947v-4.278c0-.522.423-.945.946-.945h24.634c.523 0 .946.423.946.945v4.278a.946.946 0 0 1-.946.947" fill="#B5A079"/>
        <path fill="#FFFBF3" d="M46.263 332.619h6.929V318.9h-6.93zM62.786 332.619h6.928V318.9h-6.928zM79.308 332.619h6.93V318.9h-6.93zM95.831 332.619h6.929V318.9H95.83zM112.354 332.619h6.929V318.9h-6.93z"/>
        <path fill="#FFF" d="M125.436 227.655h3.188v-6.727h-3.188zM125.436 244.21h3.188v-6.726h-3.188zM125.436 260.766h3.188v-6.726h-3.188zM125.436 277.321h3.188v-6.726h-3.188zM125.436 293h3.188v-6.727h-3.188zM125.436 308.677h3.188v-6.726h-3.188z"/>
        <path fill="#FFFBF3" d="M-7.398 220.081h21.696v-9.013H-7.398zM-7.398 240.641h21.696v-9.013H-7.398zM-7.398 261.2h21.696v-9.012H-7.398zM-7.398 281.76h21.696v-9.012H-7.398zM-7.398 302.32h21.696v-9.013H-7.398z"/>
        <path d="M101.962 187.917c0 12.28-9.96 22.233-22.243 22.233-12.285 0-22.244-9.953-22.244-22.233 0-12.279 9.959-22.234 22.244-22.234 12.284 0 22.243 9.955 22.243 22.234" fill="#1B594D"/>
        <path d="M105.473 187.917c0 12.28-9.958 22.233-22.243 22.233-12.284 0-22.243-9.953-22.243-22.233 0-12.279 9.959-22.234 22.243-22.234 12.285 0 22.243 9.955 22.243 22.234" fill="#2E8274"/>
        <path fill="#FFF" d="M96.03 192.254v-8.674h-8.46v-8.457h-8.68v8.457h-8.459v8.674h8.46v8.457h8.679v-8.457z"/>
        <path d="M559.633 352.39c-4.213 1.424-5.936 6.849-4.711 11.124-1.776-.478-3.828.692-4.319 2.464-.811-4.469-6.241-7.432-10.44-5.695.472-1.578-.118-3.346-1.23-4.56-1.113-1.214-2.68-1.932-4.278-2.33-2.427-.6-5.105-.492-7.287.729-3.21 1.795-4.744 5.56-5.566 9.145a41.699 41.699 0 0 0-1.047 8.825c-.012.934.025 1.925.53 2.71.706 1.094 2.1 1.48 3.373 1.756 18.473 3.996 37.788 2.665 56.25 6.715.527.116 1.114.227 1.578-.049.336-.2.534-.561.712-.908 1.9-3.691 3.465-7.853 2.65-11.923-.822-4.106-4.592-7.362-8.831-6.76.747-7.51-11.446-13.248-17.384-11.242" fill="#155B31"/>
        <path d="M510.783 356.89c-4.214 1.424-5.936 6.848-4.711 11.123-1.776-.477-3.828.693-4.319 2.464-1.216 4.598 36.06 8.486 35.245 4.416-.822-4.106-4.593-7.362-8.832-6.76.748-7.51-11.445-13.248-17.383-11.242" fill="#155B31"/>
        <path d="M514.226 361.785c-3.114 1.052-4.387 5.06-3.482 8.22-1.313-.354-2.828.511-3.192 1.82-.898 3.397 26.647 6.271 26.045 3.263-.607-3.034-3.393-5.44-6.526-4.996.551-5.549-8.458-9.79-12.845-8.307" fill="#0A351A"/>
        <path d="M521.802 363.267c.553-2.413 1.43-4.906 2.922-6.827 2.01-.47 4.704-.366 7.917 1.357 6.79 3.642 3.042 10.512 3.042 10.512s1.556-1.972 4.047-.824c2.49 1.148 1.967 3.901 1.967 3.901.484-.88 3.683-2.463 6.866-1.607 3.184.856 4.26 4.367 4.26 4.367s-.179-4.716 1.69-6.18c1.87-1.462 4.186-.43 4.186-.43s-1.732-2.746-1.192-7.188 7.36-5.679 7.36-5.679l8.633 1.656c2.296 1.99 3.793 4.528 3.517 7.308 4.24-.602 8.01 2.654 8.83 6.76.816 4.071-.749 8.232-2.65 11.923-.178.346-.376.708-.711.908-.464.276-1.051.164-1.58.049-18.46-4.05-37.776-2.718-56.248-6.715-1.274-.275-2.668-.661-3.373-1.757-.505-.785-.542-1.775-.531-2.71a41.7 41.7 0 0 1 1.048-8.824" fill="#0A351A"/>
        <path d="M525.14 365.791a1.872 1.872 0 0 1 1.718-.142c.531.227-1.47 1.815-1.767 1.878-1.396.296-.63-1.3.049-1.736M510.236 367.056a1.872 1.872 0 0 1-.447-1.667c.13-.567 2.052 1.11 2.167 1.39.54 1.322-1.17.866-1.72.277M531.514 369.556a1.873 1.873 0 0 1 1.686.355c.444.37-1.928 1.318-2.229 1.294-1.424-.116-.233-1.426.543-1.649" fill="#1D8950"/>
        <path d="M514.226 361.785a1.877 1.877 0 0 1 .71-1.573c.457-.355.875 2.165.785 2.454-.419 1.366-1.444-.075-1.495-.881M531.142 357.833a1.889 1.889 0 0 1 1.73-.037c.519.261-1.59 1.724-1.891 1.768-1.418.21-.549-1.338.161-1.731" fill="#146038"/>
        <path d="M266.075 387.608s-9.14-17.434-10.668-33.38c-1.529-15.944 7.187-34.844 12.258-34.926 4.929-.079 11.897 19.591 10.055 35.341-1.844 15.751-7.093 29.905-11.645 32.965" fill="#27965F"/>
        <path d="M255.963 343.035c-.389 3.21-.858 8.048-.556 11.194 1.528 15.945 10.668 33.38 10.668 33.38 4.552-3.06 9.801-17.215 11.645-32.966.434-3.712.379-7.642-.024-11.48-4.872 5.234-11.653 13.76-11.653 13.76-1.081-1.499-6.973-10.312-10.08-13.888" fill="#156039"/>
        <path d="M266.483 381.174a.217.217 0 0 1-.33-.148 200.122 200.122 0 0 1-1.613-54.582.216.216 0 0 1 .24-.192c.12.013.206.12.193.24a199.676 199.676 0 0 0 1.608 54.462.22.22 0 0 1-.098.22M269.15 370.21a.218.218 0 0 1-.33-.228 145.002 145.002 0 0 0 3.158-33.64.218.218 0 0 1 .434-.01 145.486 145.486 0 0 1-3.166 33.74.216.216 0 0 1-.097.139" fill="#156039"/>
        <path d="M270.693 392.644s4.939-13.936 13.018-23.402c8.08-9.466 23.147-15.629 25.835-13.238 2.616 2.324-4.7 16.442-14.43 24.181-9.728 7.74-20.345 12.97-24.423 12.46" fill="#27965F"/>
        <path d="M270.693 392.644c2.692.337 8.24-1.83 14.501-5.572 2.051-3.86 4.789-9.47 6.241-14.397a367.234 367.234 0 0 0 3.42-12.486c-4.015 2.352-8.082 5.465-11.144 9.053-8.08 9.466-13.018 23.402-13.018 23.402" fill="#156039"/>
        <path d="M274.53 389.16c8.437-11.3 18.397-21.637 29.512-30.628M282.022 384.437a126.215 126.215 0 0 0 20.405-16.93" stroke="#38C16F" stroke-width="2" stroke-linecap="round" stroke-linejoin="round"/>
        <path d="M269.002 394.688s-15.835-11.7-24.173-25.379c-8.336-13.68-8.745-34.487-4.22-36.773 4.402-2.221 19.26 12.436 24.477 27.412 5.22 14.976 6.675 30.002 3.916 34.74" fill="#39BC6E"/>
        <path d="M264.006 384.945c.218 2.334.425 4.436.608 6.224 2.639 2.227 4.388 3.519 4.388 3.519 2.759-4.738 1.304-19.764-3.915-34.74 0 0-1.783 17.478-1.08 24.997" fill="#17773E"/>
        <path d="M268.871 394.618s-3.3-19.404.178-35.04c3.477-15.637 17.611-30.918 22.46-29.428 4.712 1.447 5.257 22.306-1.368 36.715-6.624 14.41-15.994 26.248-21.27 27.753" fill="#39BC6E"/>
        <path d="M265.286 389.39a.218.218 0 0 1-.282-.043c-7.086-8.303-13.244-18.644-19.377-32.544-2.278-5.163-4.739-11.195-5.104-17.446a.218.218 0 0 1 .435-.025c.36 6.179 2.804 12.167 5.067 17.296 6.115 13.86 12.25 24.167 19.311 32.438a.217.217 0 0 1-.025.305c-.008.008-.016.014-.025.02M265.353 385.696l-.023.013a.218.218 0 0 1-.29-.103c-3.344-7.014-6.076-14.429-8.717-21.599-2.513-6.822-5.112-13.876-8.231-20.567a.217.217 0 0 1 .394-.184c3.128 6.708 5.73 13.77 8.245 20.6 2.637 7.162 5.366 14.567 8.702 21.563.048.1.011.219-.08.277" fill="#72E8A5"/>
        <path d="M271.408 385.546a124.18 124.18 0 0 1 10.937-40.63M277.153 378.3a203.552 203.552 0 0 0 10.399-24.994" stroke="#72E8A5" stroke-width="2" stroke-linecap="round" stroke-linejoin="round"/>
        <path d="M153.262 353.726c131.514-.817 205.972 4.212 307.324 10.953 82.314 5.475 66.766 4.164 148.366 14.023 16.838 2.034 19.161 71.54 8.96 72.109-78.576 4.386-141.794 3.654-221.177 4.274-186.218 1.455-307.763 2.911-493.983 4.367-5.402.042-2.134-72.46 8.54-88.966 85.04-10.02 149.897-16.188 241.97-16.76" fill="#7ECE29"/>
        <path d="M608.952 378.702c-81.6-9.858-66.052-8.548-148.366-14.023-62.17-4.135-114.224-7.625-175.532-9.518 42.394 4.348 106.729 12.101 160.257 23.462 62.038 13.167 138.598 36.9 178.684 49.865.366-20.702-4.484-48.511-15.043-49.786" fill="#3D630B"/>
        <path d="M188.964 413.44c-46.334-12.149-108.916-29.374-169.743-36.602-36.06-4.286-81.11-.665-111.815 2.992-7.506 25.29-9.332 79.657-4.653 79.621 186.22-1.456 307.764-2.911 493.982-4.366 79.382-.62 142.6.112 221.178-4.275 5.949-.331 7.636-24.106 4.67-44.274-33.844 13.774-93.087 32.036-172.075 33.688-128.173 2.678-215.209-14.634-261.544-26.783" fill="#3D630B"/>
        <path d="M619.59 392.857c-31.998-.661-75.474-2.276-118.467-6.13-67.01-6.007-193.794-24.7-269.053-32.743-24.135-.337-50.113-.437-78.808-.258-38.25.238-71.799 1.444-104.053 3.488 50.549.837 149.909 3.72 234.7 13.652 119.467 13.995 0 41.984-65.167 50.381-49.616 6.393-233.55 12.787-318.499 15.474-.279 13.078.536 22.746 2.51 22.73 150.674-1.177 259.012-2.354 393.522-3.533 26.194-10.152 54.433-22.11 67.278-30.939 27.152-18.66 16.292-28.922 16.292-28.922s154.46 22.919 244.168 29.962c-.024-11.076-1.474-23.721-4.424-33.162" fill="#E0EA7F"/>
        <path d="M624.013 426.019a137.914 137.914 0 0 0-.21-7.166l-156.895-13.955-113.231-19.828 26.167 10.986s154.46 22.92 244.169 29.963" fill="#CCC964"/>
        <path fill="#E0EA7F" d="M611.386 410.297-96.5 422.17v52.946h707.886z"/>
        <path d="M611.386 462.283c-42.547-4.886-102.734-11.353-123.27-11.353-33.005 0-252.658 14.135-283.388 14.135-27.557 0-254.648-10.334-301.228-12.467v22.517h707.886v-12.832zM-96.5 422.169v9.228c52.644-1.215 153.227-3.215 182.635-1.524 25.189 1.448 86.044-6.43 128.342-12.575l-310.977 4.87z" fill="#CCC964"/>
        <path fill="#7ECE29" d="M-96.5 568h718.996v-98.281H-96.5z"/>
        <path d="M611.386 469.719H149.062c53.352 9.535 130.897 20.638 202.798 20.638 126.012 0 259.526-20.638 259.526-20.638" fill="#9DE54A"/>
        <path d="M622.497 498.622c-32.555.791-157.307 48.634-223.04 48.634-66.278 0-235.104-41.72-318.891-48.67C25.8 494.042-50.327 494.037-96.5 501.31V568h718.997v-69.378z" fill="#3D630B"/>
        <path d="M-4.36 445.876c8.776 4.055 11.082 15.858 7.294 24.502 3.983-.55 8.128 2.424 8.729 6.26 2.939-9.154 15.512-13.979 24.168-9.273-.605-3.425 1.141-6.979 3.878-9.24 2.735-2.26 6.325-3.367 9.9-3.791 5.429-.643 11.218.265 15.633 3.379 6.496 4.58 8.833 12.857 9.669 20.576.674 6.23.656 12.53-.054 18.756-.222 1.96-.563 4.025-1.87 5.542-1.819 2.115-4.948 2.568-7.785 2.82-41.163 3.673-82.752-4.032-123.905-.245-1.175.108-2.48.193-3.416-.503-.675-.503-1.009-1.312-1.304-2.084-3.154-8.217-5.451-17.332-2.608-25.655 2.869-8.393 11.915-14.253 20.96-11.916.36-15.923 28.35-24.84 40.712-19.128" fill="#0D4C29"/>
        <path d="M74.91 478.29c-.562-5.196-1.807-10.643-4.54-15.047-4.24-1.496-10.117-1.963-17.548.83-15.706 5.901-9.383 21.246-9.383 21.246s-2.855-4.524-8.566-2.753c-5.712 1.77-5.304 7.672-5.304 7.672-.816-1.967-7.343-6.099-14.481-5.115-7.14.983-10.403 8.066-10.403 8.066s1.631-9.837-2.04-13.377c-3.671-3.542-8.974-1.968-8.974-1.968s4.487-5.312 4.487-14.756c0-9.442-14.482-13.77-14.482-13.77l-19.182 1.272c-5.51 3.588-9.432 8.52-9.564 14.414-9.046-2.337-18.093 3.523-20.96 11.917-2.844 8.321-.547 17.437 2.607 25.655.295.77.63 1.58 1.305 2.083.934.696 2.24.612 3.415.504 41.152-3.789 82.742 3.917 123.905.245 2.838-.253 5.966-.706 7.785-2.821 1.306-1.518 1.648-3.581 1.87-5.541.71-6.227.728-12.527.054-18.757" fill="#083018"/>
        <path d="M66.998 482.729c-1.008-.804-2.436-1.09-3.69-.737-1.215.341 2.71 4.178 3.338 4.384 2.953.976 1.713-2.561.352-3.647M52.166 488.994a4.227 4.227 0 0 0-3.756.314c-1.062.662 3.838 3.254 4.499 3.279 3.12.12.882-2.927-.743-3.593" fill="#1D8950"/>
        <path d="M35.324 477.986c.241-1.241-.195-2.587-1.125-3.478-.898-.86-2.473 4.313-2.356 4.944.55 2.968 3.157.209 3.481-1.466M56.067 464.527c-1.064-.744-2.515-.943-3.748-.515-1.194.414 2.999 4.015 3.64 4.184 3.026.798 1.544-2.664.108-3.669M14.856 486.777c-.266-1.233-1.2-2.312-2.412-2.79-1.171-.461-.59 4.887-.233 5.425 1.68 2.534 3.005-.971 2.645-2.635" fill="#146038"/>
        <path d="M238.568 436.28c0 1.926-47.48 3.488-106.05 3.488-58.572 0-106.053-1.562-106.053-3.487 0-1.927 47.48-3.487 106.052-3.487 58.57 0 106.051 1.56 106.051 3.487" fill="#CCC964"/>
        <path d="M178.434 323.747c-.05-.17-.1-.342-.16-.51-.128-.365-.28-.723-.424-1.083a26.69 26.69 0 0 0-.67-1.524c-.143-.3-.276-.605-.43-.9l-.107-.196a5.645 5.645 0 0 0-.536-.825 2.821 2.821 0 0 0-.493-.496c-.016-.012-.027-.026-.042-.038-.49-.354-1.085-.495-1.693-.574-.241-.03-.484-.055-.725-.074-.114-.01-.227-.02-.34-.028l-4.868-.394-1.411-.115c-.185-.014-.377-.031-.537-.124-.244-.14-.363-.42-.526-.647a1.195 1.195 0 0 0-.267-.273l-.007-.006c-.279-.206-.596-.254-.921-.444l.032-.052a.683.683 0 0 0-.21-.942l-.757-.478c-.027-.018-.06-.022-.09-.036-.015-.014-.024-.037-.04-.051l-.02.03a.666.666 0 0 0-.635.105c-.009-.008-.017-.017-.027-.024-.243.385-.507.762-.769 1.13l-2.432 3.407.234.12-.043.068a.683.683 0 0 0 .212.942l.754.479c.292.184.66.111.878-.143 1.244.851 1.09 2.239 2.467 3.368a4.731 4.731 0 0 0 .397.294 5.14 5.14 0 0 0 2.16.805c.71.095 1.438.045 2.125-.16.478-.14.93-.35 1.377-.575-.158.398-.252.83-.252 1.284a3.477 3.477 0 0 0 3.478 3.476 3.47 3.47 0 0 0 3.164-2.049c-.057.283-.122.565-.18.845-.083.394-.142.786-.078 1.182.01.068.026.138.054.201s.067.12.122.16c.252.178.573-.093.758-.34.106-.14.214-.283.32-.428.55-.753 1.059-1.563 1.262-2.434.072-.304.11-.616.093-.937a4.202 4.202 0 0 0-.197-.996" fill="#2C3F48"/>
        <path d="M162.53 314.048a89.919 89.919 0 0 1-2.718-2.437 114.08 114.08 0 0 1-4.79-4.802c-.672-.71-2.382-2.33-3.991-3.884a205.13 205.13 0 0 1-1.067-1.034l-.05-.049-.436-.429-.126-.125-.339-.338-.151-.154c-.09-.091-.182-.183-.265-.27-.062-.062-.116-.118-.173-.179l-.188-.197c-.06-.064-.108-.118-.16-.175-.045-.049-.094-.101-.133-.145a5.012 5.012 0 0 1-.206-.248 22.647 22.647 0 0 0-1.228-1.46 16.043 16.043 0 0 0-.603-.63l-.002-.001c-1.433-1.42-2.742-2.191-3.918-2.487a4.778 4.778 0 0 0-1.068-.148c-.963-.022-1.82.273-2.576.742a6.462 6.462 0 0 0-.852.634c-.025.021-.051.042-.074.064-1.534 1.384-2.499 3.414-2.859 4.454-.023.066-.013.146.022.234.248.622 1.744 1.712 2.006 1.941 1.677 1.472 3.47 2.81 5.183 4.24.796.663 1.62 1.293 2.44 1.927.289.223.569.46.861.681a92.497 92.497 0 0 0 11.559 7.413c.892.483 1.796.942 2.7 1.398.812-1.135 1.623-2.27 2.433-3.406.262-.368.525-.744.77-1.13" fill="#EF816B"/>
        <path d="M124.748 273.81c-.386 2.166 3.566 19.362 8.54 29.926 3.91-1.59 12.398-5.162 14.16-5.88.038-.015-3.415-17.758-3.735-19.397-.52-2.67-1.054-5.38-2.297-7.8-.976-1.903-4.434-5.929-9.467-3.92-3.228 1.289-6.543 3.375-7.201 7.071" fill="#E08D0F"/>
        <path d="M149.883 305.225c.593-.565 1.208-1.107 1.813-1.658l-.666-.642a205.131 205.131 0 0 1-1.116-1.083l-.437-.43-.126-.125a56.405 56.405 0 0 1-.489-.49l-.265-.27a9.548 9.548 0 0 1-.172-.18l-.19-.197-.16-.176-.131-.144a5.106 5.106 0 0 1-.185-.22c-.006-.01-.017-.02-.022-.028a22.88 22.88 0 0 0-1.227-1.46 17.6 17.6 0 0 0-.604-.63l-.002-.001c-1.433-1.42-2.742-2.191-3.918-2.488a4.815 4.815 0 0 0-1.069-.147c-.963-.022-1.82.273-2.576.742a6.6 6.6 0 0 0-.852.633l-.074.064c-1.532 1.385-2.498 3.416-2.858 4.455a.346.346 0 0 0 .022.235c.248.62 1.744 1.711 2.005 1.94 1.678 1.471 3.47 2.811 5.184 4.24.796.664 1.62 1.293 2.44 1.926.289.225.568.462.86.682.073.054.148.104.22.158a103.147 103.147 0 0 1 4.595-4.706" fill="#1F2E34"/>
        <path d="M182.419 398.081a5.93 5.93 0 0 1-1.693-.24c-2.653-.793-4.838-3.256-5.703-6.43-.797-2.91-.479-6.02-.064-8.676.094-.599.195-1.198.297-1.794.37-2.177.75-4.427.714-6.647-.037-2.31-.525-4.621-.995-6.857l.762-.16c.478 2.272.972 4.62 1.01 7.006.038 2.291-.349 4.576-.723 6.787a147.74 147.74 0 0 0-.296 1.785c-.403 2.575-.713 5.582.044 8.352.797 2.916 2.78 5.172 5.177 5.888 1.365.407 2.956.21 4.259-.519 1.097-.618 1.856-1.551 2.136-2.628l.754.196c-.334 1.282-1.226 2.386-2.51 3.11a6.521 6.521 0 0 1-3.17.827" fill="#2D4551"/>
        <path d="M194.909 394.862c-10.254 0-18.599 8.34-18.599 18.59s8.345 18.59 18.599 18.59 18.597-8.34 18.597-18.59-8.343-18.59-18.597-18.59m0 40.292c-11.971 0-21.712-9.736-21.712-21.703 0-11.966 9.74-21.702 21.712-21.702 11.971 0 21.711 9.736 21.711 21.702 0 11.967-9.74 21.703-21.711 21.703" fill="#324550"/>
        <path d="M194.909 392.705c-11.446 0-20.756 9.307-20.756 20.747s9.31 20.746 20.756 20.746c11.445 0 20.756-9.306 20.756-20.746s-9.311-20.747-20.756-20.747m0 44.606c-13.162 0-23.869-10.703-23.869-23.859 0-13.156 10.707-23.86 23.869-23.86 13.16 0 23.869 10.704 23.869 23.86 0 13.156-10.708 23.859-23.87 23.859" fill="#324550"/>
        <path d="M194.909 394.041c-10.708 0-19.42 8.708-19.42 19.411 0 10.703 8.712 19.41 19.42 19.41 10.707 0 19.418-8.707 19.418-19.41s-8.71-19.41-19.418-19.41m0 40.896c-11.853 0-21.496-9.638-21.496-21.486s9.643-21.485 21.496-21.485c11.852 0 21.495 9.637 21.495 21.485 0 11.848-9.643 21.486-21.495 21.486" fill="#F2FBFF"/>
        <path d="M199.994 413.452a5.085 5.085 0 0 1-5.086 5.084 5.085 5.085 0 0 1-5.086-5.084 5.085 5.085 0 0 1 5.086-5.084 5.085 5.085 0 0 1 5.086 5.084" fill="#324550"/>
        <path d="M177.223 419.911a.39.39 0 0 1-.12-.758l13.497-4.37a.387.387 0 0 1 .49.25.388.388 0 0 1-.25.489l-13.497 4.37a.376.376 0 0 1-.12.02M176.164 415.603a.389.389 0 0 1-.049-.776l14.203-1.736a.383.383 0 0 1 .433.338.39.39 0 0 1-.339.433l-14.2 1.738a.426.426 0 0 1-.048.003M190.592 412.957a.647.647 0 0 1-.043-.001l-14.517-1.587a.39.39 0 1 1 .086-.774l14.516 1.587a.388.388 0 0 1-.042.775" fill="#324550"/>
        <path d="M190.7 412.715a.394.394 0 0 1-.143-.028l-13.18-5.248a.39.39 0 0 1-.218-.506c.08-.201.308-.296.505-.218l13.18 5.249c.2.08.297.305.219.505a.392.392 0 0 1-.362.246M191.498 411.199a.387.387 0 0 1-.21-.062l-12.04-7.725a.386.386 0 0 1-.117-.536.388.388 0 0 1 .537-.118l12.04 7.725a.387.387 0 0 1 .117.536.386.386 0 0 1-.327.18M192.252 410.646a.39.39 0 0 1-.28-.119l-10.16-10.486a.388.388 0 1 1 .559-.54l10.161 10.486a.39.39 0 0 1-.28.659M193.294 409.858a.391.391 0 0 1-.368-.262l-4.749-13.704a.389.389 0 0 1 .736-.255l4.75 13.704a.391.391 0 0 1-.37.517" fill="#324550"/>
        <path d="M192.489 410.037a.387.387 0 0 1-.332-.185l-7.438-12.093a.389.389 0 0 1 .663-.406l7.438 12.09a.388.388 0 0 1-.331.594M212.577 419.643a.349.349 0 0 1-.12-.02l-13.497-4.37a.388.388 0 0 1-.25-.489.388.388 0 0 1 .49-.25l13.496 4.37a.387.387 0 0 1-.119.759M213.636 415.334a.426.426 0 0 1-.048-.002l-14.2-1.74a.389.389 0 0 1-.34-.433.38.38 0 0 1 .434-.338l14.202 1.738a.39.39 0 0 1-.048.775M208.555 426.87a.382.382 0 0 1-.255-.097l-10.665-9.3a.388.388 0 1 1 .51-.585l10.666 9.3a.388.388 0 0 1-.256.682M211.225 423.324a.39.39 0 0 1-.195-.052l-12.35-7.156a.39.39 0 0 1 .391-.672l12.35 7.155a.388.388 0 0 1-.196.725M199.208 412.689a.388.388 0 0 1-.042-.776l14.516-1.588c.225-.01.407.134.431.345a.39.39 0 0 1-.345.43l-14.517 1.587a.677.677 0 0 1-.043.002" fill="#324550"/>
        <path d="M199.1 412.446a.39.39 0 0 1-.363-.246.39.39 0 0 1 .22-.505l13.179-5.249a.394.394 0 0 1 .505.218c.079.2-.019.426-.218.506l-13.18 5.248a.375.375 0 0 1-.144.028M198.3 410.93a.389.389 0 0 1-.21-.716l12.042-7.725a.387.387 0 0 1 .537.118.387.387 0 0 1-.117.537l-12.041 7.725a.397.397 0 0 1-.21.061M197.548 410.377a.39.39 0 0 1-.28-.659l10.16-10.486a.39.39 0 0 1 .56.54l-10.16 10.487a.392.392 0 0 1-.28.118M196.505 409.59a.39.39 0 0 1-.368-.517l4.75-13.706a.39.39 0 0 1 .736.256l-4.75 13.705a.392.392 0 0 1-.368.261M194.493 409.187a.39.39 0 0 1-.386-.338l-1.892-14.088a.39.39 0 0 1 .772-.103l1.892 14.089a.39.39 0 0 1-.386.44" fill="#324550"/>
        <path d="M194.493 409.187a.39.39 0 0 1-.382-.457l2.533-14.17a.39.39 0 0 1 .767.137l-2.535 14.17a.39.39 0 0 1-.383.32M181.969 427.39a.39.39 0 0 1-.28-.659l10.162-10.486a.388.388 0 1 1 .56.54l-10.162 10.487a.39.39 0 0 1-.28.119M179.103 423.855a.39.39 0 0 1-.33-.18.392.392 0 0 1 .122-.538l11.879-7.499a.39.39 0 1 1 .414.66l-11.877 7.498a.393.393 0 0 1-.208.059M188.423 431.397a.39.39 0 0 1-.368-.517l4.75-13.704a.389.389 0 0 1 .735.255l-4.75 13.704a.39.39 0 0 1-.367.262" fill="#324550"/>
        <path d="M184.929 429.605a.388.388 0 0 1-.332-.593l7.438-12.09a.39.39 0 0 1 .663.407l-7.438 12.091a.387.387 0 0 1-.331.185M201.133 431.666a.39.39 0 0 1-.368-.261l-4.749-13.706a.389.389 0 1 1 .735-.255l4.75 13.706a.39.39 0 0 1-.368.516M205.071 429.764a.39.39 0 0 1-.327-.176l-7.903-12.097a.387.387 0 0 1 .113-.538.384.384 0 0 1 .537.113l7.906 12.097a.39.39 0 0 1-.326.601M192.48 432.452a.39.39 0 0 1-.386-.44l1.891-14.09a.397.397 0 0 1 .438-.334c.213.03.363.225.335.439l-1.893 14.088a.39.39 0 0 1-.386.337" fill="#324550"/>
        <path d="M196.905 432.533a.39.39 0 0 1-.382-.32l-2.535-14.17a.391.391 0 0 1 .314-.452.389.389 0 0 1 .453.314l2.533 14.17a.39.39 0 0 1-.383.458M197.312 409.768a.388.388 0 0 1-.332-.592l7.438-12.092a.389.389 0 1 1 .664.407l-7.439 12.092a.387.387 0 0 1-.331.185" fill="#324550"/>
        <path d="M194.553 414.4c-.461 0-.919-.205-1.225-.597l-7.685-9.789a1.55 1.55 0 0 1-.262-.495l-14.853-47.385a1.672 1.672 0 0 1-.071-.446l-.418-32.008a1.556 1.556 0 0 1 1.537-1.576h.02c.85 0 1.546.684 1.557 1.536l.415 31.78 14.7 46.898 7.508 9.565a1.554 1.554 0 0 1-1.223 2.516" fill="#FF580A"/>
        <path d="M180.58 388.204c.957-.47 1.893-.984 2.762-1.604l-.549-1.744-.195.076c-.908.357-1.818.722-2.664 1.207l.646 2.065zM177.684 368.552a10.262 10.262 0 0 0-3.07.615l.915 2.923c.407-.004.814-.018 1.219-.056.644-.059 1.304-.183 1.885-.453l-.949-3.029z" fill="#CA3600"/>
        <path fill="#324550" d="M106.616 382.559 95.62 343.706l2.997-.847 10.997 38.852z"/>
        <path fill="#324550" d="m101.231 343.175-7.521 1.24-.326-1.972 7.522-1.24z"/>
        <path d="M177.111 366.961c.17-.071.346-.144.53-.14.456.013.765.475 1.193.634.462.171.97-.036 1.465-.05a.78.78 0 0 1 .366.06c.378.184.37.718.303 1.133-.912.16-1.487 1.04-2.212 1.614-1.473 1.165-3.55 1.055-5.419.888-1.363-.123-2.88-.97-1.152-2.026 1.483-.907 3.325-1.44 4.926-2.113" fill="#2D4551"/>
        <path d="M94.637 343.259c.07.177.151.362.309.468.219.147.51.097.766.04a30.708 30.708 0 0 0 3.198-.907c.174-.06.363-.134.452-.294.072-.128.064-.282.06-.428-.05-1.66.541-3.26.912-4.88.026-.112.048-.238-.009-.338-.066-.114-.211-.153-.341-.177-1.484-.283-4.715-.568-5.82.786-1.078 1.318-.06 4.378.473 5.73" fill="#324550"/>
        <path d="M97.023 340.782c-.684 0-1.349-.03-1.98-.062a85.018 85.018 0 0 1-3.118-.223c-.222-.02-.634-.058-.92-.37-.282-.3-.293-.694-.3-.93l-.059-2.182a.52.52 0 0 1 .505-.532h.014c.28 0 .511.222.519.503l.058 2.183c.001.058.006.218.03.262.03.013.193.028.247.032 1.024.094 2.05.167 3.078.222 1.782.093 3.848.148 5.741-.405 2.662-.78 4.92-2.732 6.91-4.455a.519.519 0 0 1 .679.784c-2.07 1.792-4.417 3.824-7.296 4.666-1.359.397-2.77.507-4.108.507M132.383 405.679c0 7.17-5.815 12.982-12.987 12.982-7.174 0-12.988-5.812-12.988-12.982 0-7.17 5.814-12.982 12.988-12.982 7.172 0 12.987 5.812 12.987 12.982" fill="#324550"/>
        <path d="M119.396 395.66c-5.527 0-10.022 4.495-10.022 10.019 0 5.523 4.495 10.018 10.022 10.018 5.525 0 10.02-4.495 10.02-10.018 0-5.524-4.495-10.019-10.02-10.019m0 22.111c-6.67 0-12.099-5.424-12.099-12.092s5.429-12.093 12.099-12.093 12.097 5.425 12.097 12.093-5.427 12.092-12.097 12.092" fill="#F2FBFF"/>
        <path d="M170.164 338.296c.012.208.023.42.103.612.25.599 1.012.752 1.657.82.175.02.365.037.517-.052.22-.127.277-.416.31-.668.092-.686.172-1.434-.187-2.026-.113-.186-.265-.347-.358-.543-.11-.234-.128-.5-.144-.758l-.358-5.842c-.017-.276-.038-.564-.183-.798-.375-.603-1.31-1.157-1.768-.452-.409.634.027 2.417.065 3.134l.346 6.573" fill="#324550"/>
        <path d="M116.612 359.282c-.181.247-13.21.894-13.479.748 0 0 .88 3.424-.2 5.01-1.505 2.205-2.972 3.636-4.311 7.917-1.944 6.208-8.618 23.656-9.289 25.63-.413 1.217-.558 2.614.019 3.764.667 1.332 2.293 2.024 3.77 1.827 1.477-.196 2.776-1.162 3.634-2.38.22-.316 18.62-32.29 19.26-36.365.544-3.461.745-6.354.596-6.151" fill="#FDD0AA"/>
        <path d="M98.621 372.957c-.774 2.47-2.297 6.723-3.891 11.07.195.07.384.139.558.208a417.374 417.374 0 0 0 9.39 3.589c5.153-9.27 10.982-20.128 11.338-22.39.544-3.461.745-6.355.596-6.153-.18.248-13.21.895-13.479.75 0 0 .882 3.423-.2 5.01-1.504 2.205-2.972 3.634-4.312 7.916M92.282 398.227a13.957 13.957 0 0 1-2.54-.931c-.133.43-.263.862-.409 1.29-.414 1.218-.558 2.615.019 3.765.667 1.331 2.293 2.024 3.77 1.827 1.477-.197 2.777-1.161 3.634-2.38.136-.197 1.038-1.239 1.649-2.828-1.898-.093-4.282-.258-6.123-.743" fill="#18252C"/>
        <path d="m99.423 361.855-.032-.104a1853.882 1853.882 0 0 0-6.054-19.409c-1.872-5.882-2.582-7.592-2.653-13.816-.11-9.607 2.785-13.807 8.082-12.335 7.528 2.092 17.259 6.209 17.69 7.75.84 2.991 1.897 32.454 1.738 35.654-.011.245-.025.495-.12.722-.17.397-.56.647-.933.862a23.675 23.675 0 0 1-14.468 2.975c-.65-.076-1.308-.184-1.9-.464a2.299 2.299 0 0 1-.607-.4c-.393-.377-.58-.911-.743-1.435" fill="#324550"/>
        <path d="M108.86 414.509c.328.025.628-.251.7-.571.071-.321-.05-.66-.253-.919-.2-.26-.474-.45-.749-.631-1.323-.872-2.756-1.575-4.04-2.506a20.479 20.479 0 0 1-5.232-5.537l-.582-.912c-.48-.75-.975-1.52-1.693-2.049-.124-.091-.262-.177-.416-.192-.268-.024-.504.171-.68.375-.238.272-.486.595-.627.927a8.291 8.291 0 0 0-2.293.475c-.54.194-1.102.449-1.664.333-.516-.106-.923-.514-1.185-.97-.26-.458-.403-.97-.593-1.46-.19-.49-.402-1.086-.889-1.288-.24-.1-.466.16-.595.386a36.7 36.7 0 0 0-2.572 5.53c1.39 1.719 3.424 2.84 5.445 3.734 2.021.896 4.138 1.57 6.124 2.543 2.068 1.012 4.076 2.37 6.373 2.536 1.158.084 2.336-.145 3.476.069.594.112 1.343.08 1.945.127" fill="#FF9A00"/>
        <path d="M85.512 405.363s-1.654 1.15-1.858 2.049c-.203.898 1.518 2.355 6.399 4.33 4.88 1.976 9.598 3.285 12.983 3.773 3.384.49 5.415.33 6.034-.424.621-.754.499-1.204.499-1.204s-4.728.46-8.535-.678c-3.583-1.07-8.005-3.738-10.542-5.118-2.295-1.249-4.98-2.728-4.98-2.728" fill="#E1E0E3"/>
        <path d="M101.956 415c-3.67-.495-7.714-1.93-9.89-2.794-2.175-.863-5.226-2.288-6.771-3.265-.877-.555-1.344-1.229-1.584-1.708-.024.06-.045.12-.057.179-.203.898 1.518 2.355 6.399 4.33 4.88 1.976 9.598 3.285 12.983 3.774 3.102.448 5.065.352 5.849-.248-1.352.05-4.24.094-6.929-.268" fill="#2D2D2D"/>
        <path d="M104.519 409.882a20.479 20.479 0 0 1-5.233-5.537l-.582-.912c-.48-.75-.975-1.52-1.693-2.048-.124-.092-.262-.178-.416-.193-.268-.025-.504.171-.68.375-.221.255-.452.552-.597.86l.029.077c.052.128.146.233.234.339 1.224 1.48 1.671 3.511 3.007 4.89.55.567 1.225.995 1.896 1.414 1.11.693 2.268 1.39 3.565 1.575.402.057.849.05 1.162-.208.035-.03.067-.062.097-.096-.268-.172-.531-.35-.79-.536" fill="#E46B00"/>
        <path d="M93.51 416.382c-.645 0-1.25-.404-1.47-1.05a1.553 1.553 0 0 1 .965-1.977l24.29-8.365c.808-.28 1.7.15 1.98.964a1.553 1.553 0 0 1-.965 1.977l-24.293 8.366a1.536 1.536 0 0 1-.506.085" fill="#1E2D34"/>
        <path d="m95.954 417.554-8.318-2.828a1.162 1.162 0 0 1-.726-1.473l.444-1.306a1.162 1.162 0 0 1 1.475-.725l8.317 2.828c.608.206.933.866.726 1.474l-.444 1.304a1.162 1.162 0 0 1-1.474.726" fill="#1E2D34"/>
        <path d="M72.97 394.862c-10.254 0-18.599 8.34-18.599 18.59s8.345 18.59 18.599 18.59 18.597-8.34 18.597-18.59-8.343-18.59-18.597-18.59m0 40.292c-11.971 0-21.713-9.736-21.713-21.703 0-11.966 9.742-21.702 21.713-21.702s21.711 9.736 21.711 21.702c0 11.967-9.74 21.703-21.711 21.703" fill="#324550"/>
        <path d="M72.97 392.705c-11.446 0-20.756 9.307-20.756 20.747s9.31 20.746 20.756 20.746c11.445 0 20.756-9.306 20.756-20.746s-9.311-20.747-20.756-20.747m0 44.606c-13.162 0-23.869-10.703-23.869-23.859 0-13.156 10.707-23.86 23.869-23.86 13.16 0 23.869 10.704 23.869 23.86 0 13.156-10.708 23.859-23.87 23.859" fill="#324550"/>
        <path d="M85.138 420.845a2.288 2.288 0 1 1-4.576-.001 2.288 2.288 0 0 1 4.576.001" fill="#324550"/>
        <path d="M72.97 394.041c-10.708 0-19.42 8.708-19.42 19.411 0 10.703 8.712 19.41 19.42 19.41 10.707 0 19.418-8.707 19.418-19.41s-8.71-19.41-19.418-19.41m0 40.896c-11.853 0-21.496-9.638-21.496-21.486s9.643-21.485 21.496-21.485c11.852 0 21.495 9.637 21.495 21.485 0 11.848-9.643 21.486-21.495 21.486" fill="#F2FBFF"/>
        <path d="M69.811 420.177c.356.261.823.26 1.258.253a71.315 71.315 0 0 1 9.775.51c.17.022.365.033.481-.098.076-.087.093-.214.104-.332.055-.563.067-1.13.041-1.694-.032-.702-.169-1.48-.707-1.902-.544-.427-1.297-.34-1.975-.266-1.329.146-2.67.16-4.002.047-1.3-.111-2.55-.534-3.834-.668-2.076-.219-2.696 3.01-1.14 4.15" fill="#324550"/>
        <path d="M78.055 413.452a5.085 5.085 0 0 1-5.086 5.084 5.085 5.085 0 0 1-5.086-5.084 5.085 5.085 0 0 1 5.086-5.084 5.085 5.085 0 0 1 5.086 5.084" fill="#324550"/>
        <path d="M55.283 419.911a.39.39 0 0 1-.12-.758l13.497-4.37a.387.387 0 0 1 .49.25.388.388 0 0 1-.25.489l-13.497 4.37a.376.376 0 0 1-.12.02M54.225 415.603a.39.39 0 0 1-.048-.776l14.202-1.736a.38.38 0 0 1 .433.338.39.39 0 0 1-.339.433l-14.2 1.738a.426.426 0 0 1-.048.003M68.653 412.957a.677.677 0 0 1-.043-.001l-14.518-1.587a.39.39 0 1 1 .086-.774l14.517 1.587a.389.389 0 0 1-.042.775" fill="#324550"/>
        <path d="M68.762 412.715a.394.394 0 0 1-.144-.028l-13.18-5.248a.392.392 0 0 1-.218-.506c.079-.201.31-.296.505-.218l13.18 5.249c.2.08.297.305.219.505a.392.392 0 0 1-.362.246M69.56 411.199a.387.387 0 0 1-.21-.062l-12.04-7.725a.386.386 0 0 1-.118-.536.388.388 0 0 1 .537-.118l12.04 7.725a.389.389 0 0 1-.21.716M70.313 410.646a.39.39 0 0 1-.28-.119l-10.16-10.486a.39.39 0 0 1 .56-.54l10.16 10.486a.39.39 0 0 1-.28.659M71.355 409.858a.391.391 0 0 1-.368-.262l-4.749-13.704a.389.389 0 0 1 .736-.255l4.75 13.704a.39.39 0 0 1-.37.517" fill="#324550"/>
        <path d="M70.55 410.037a.387.387 0 0 1-.332-.185l-7.439-12.093a.389.389 0 1 1 .665-.406l7.437 12.09a.388.388 0 0 1-.332.594M90.638 419.643a.349.349 0 0 1-.12-.02l-13.497-4.37a.39.39 0 0 1 .24-.74l13.496 4.372a.387.387 0 0 1-.119.758M91.697 415.334a.426.426 0 0 1-.048-.002l-14.201-1.74a.388.388 0 0 1-.34-.433.384.384 0 0 1 .435-.338l14.202 1.738a.388.388 0 0 1-.048.775M86.616 426.87a.383.383 0 0 1-.255-.097l-10.665-9.3a.388.388 0 1 1 .51-.585l10.666 9.3a.388.388 0 0 1-.256.682M89.286 423.324a.39.39 0 0 1-.195-.052l-12.35-7.156a.39.39 0 0 1 .391-.672l12.35 7.155a.388.388 0 0 1-.196.725M77.269 412.689a.389.389 0 0 1-.042-.776l14.516-1.588c.223-.01.407.134.431.345a.39.39 0 0 1-.345.43l-14.517 1.587a.677.677 0 0 1-.043.002" fill="#324550"/>
        <path d="M77.16 412.446a.392.392 0 0 1-.362-.246.39.39 0 0 1 .22-.505l13.179-5.249a.393.393 0 0 1 .505.218c.079.2-.019.426-.218.506l-13.18 5.248a.375.375 0 0 1-.144.028M76.362 410.93a.389.389 0 0 1-.21-.716l12.041-7.725a.387.387 0 0 1 .537.118.386.386 0 0 1-.117.537l-12.041 7.725a.394.394 0 0 1-.21.061M75.609 410.377a.39.39 0 0 1-.28-.659l10.16-10.486a.39.39 0 0 1 .56.54L75.89 410.26a.392.392 0 0 1-.28.118M74.565 409.59a.39.39 0 0 1-.368-.517l4.75-13.706a.39.39 0 0 1 .736.256l-4.749 13.705a.392.392 0 0 1-.369.261M72.554 409.187a.389.389 0 0 1-.385-.338l-1.893-14.088a.39.39 0 0 1 .772-.103l1.892 14.089a.39.39 0 0 1-.386.44" fill="#324550"/>
        <path d="M72.554 409.187a.39.39 0 0 1-.382-.457l2.533-14.17a.389.389 0 1 1 .766.138l-2.534 14.17a.39.39 0 0 1-.383.32M60.03 427.39a.389.389 0 0 1-.279-.659l10.161-10.486a.388.388 0 1 1 .56.54L60.31 427.273a.39.39 0 0 1-.28.119M57.164 423.855a.387.387 0 0 1-.33-.18.39.39 0 0 1 .122-.538l11.879-7.499a.39.39 0 0 1 .414.66l-11.877 7.498a.393.393 0 0 1-.208.059M66.484 431.397a.39.39 0 0 1-.368-.517l4.75-13.704a.389.389 0 0 1 .735.255l-4.75 13.704a.39.39 0 0 1-.367.262" fill="#324550"/>
        <path d="M62.99 429.605a.388.388 0 0 1-.332-.593l7.438-12.09a.39.39 0 0 1 .663.407l-7.438 12.091a.387.387 0 0 1-.331.185M79.194 431.666a.39.39 0 0 1-.368-.261l-4.75-13.706a.389.389 0 1 1 .736-.255l4.75 13.706a.39.39 0 0 1-.368.516M83.132 429.764a.388.388 0 0 1-.326-.176l-7.903-12.097a.386.386 0 0 1 .112-.538c.18-.12.42-.069.54.113l7.904 12.097a.39.39 0 0 1-.327.601M70.54 432.452a.39.39 0 0 1-.386-.44l1.892-14.09a.396.396 0 0 1 .438-.334c.214.03.363.225.335.439l-1.893 14.088a.388.388 0 0 1-.386.337" fill="#324550"/>
        <path d="M74.967 432.533a.39.39 0 0 1-.383-.32l-2.535-14.17a.391.391 0 0 1 .314-.452.386.386 0 0 1 .453.314l2.533 14.17a.39.39 0 0 1-.382.458M75.373 409.768a.388.388 0 0 1-.332-.592l7.438-12.092a.389.389 0 1 1 .664.407l-7.439 12.092a.387.387 0 0 1-.331.185" fill="#324550"/>
        <path fill="#18252C" d="M106.616 382.559 95.62 343.706l2.997-.847 10.997 38.852z"/>
        <path fill="#434749" d="m109.182 381.808-10.997-38.852.43-.097 10.997 38.852z"/>
        <path d="M120.348 392.874c-1.169 2.702-2.889 6.395-4.266 9.307l-3.656-13.01c2.675-.87 7.128-2.281 11.868-3.64-1.278 2.052-2.808 4.716-3.946 7.343zm-12.084 14.786-8.527-19.114 6.467-2.33 5.843 20.79-3.783.654zm-33.3 3.447 23.014-21.41 8.177 18.328-31.836 5.503.646-2.42zm104.06-32.366c-1.238-.09-30.46-2.17-40.265-.856-7.726 1.038-21.552 5.364-27.458 7.285l-1.019-3.625-4.997 1.402.357 1.267-7.66 2.759c-.012.004-.02.015-.031.02-.013.005-.027.003-.04.008-.055.024-.092.068-.14.1-.047.031-.102.05-.144.088L73.331 409.79a1.053 1.053 0 0 0-.296.493l-1.138 4.275a1.037 1.037 0 0 0 1.178 1.29l39.537-6.834.01.037.365-.102 2.456-.425c.296-.05.535-.225.687-.457l.194-.054.344.165.148-.304.804-.225-.257-.914c1.304-2.722 4.145-8.702 5.843-12.626 1.743-4.028 4.573-8.296 5.63-9.833 3.89-1.032 7.655-1.9 10.476-2.28 9.385-1.26 39.114.861 39.415.883 1.139.063 2.136-.78 2.22-1.92a2.077 2.077 0 0 0-1.923-2.219z" fill="#FF580A"/>
        <path d="M102.618 346.43c2.88-.843 5.226-2.874 7.297-4.667a.518.518 0 0 0-.68-.784c-1.99 1.723-4.247 3.677-6.908 4.455-.353.103-.715.166-1.076.231.181-.752.398-1.501.571-2.253.025-.113.049-.238-.009-.338-.066-.115-.21-.153-.342-.178-1.483-.282-4.715-.566-5.82.786-.407.499-.514 1.247-.461 2.056-.56-.038-1.124-.069-1.684-.12-.053-.005-.216-.02-.245-.033-.025-.045-.03-.204-.03-.263l-.059-2.181a.52.52 0 0 0-.519-.505h-.013a.521.521 0 0 0-.506.533l.059 2.183c.006.235.017.628.299.93.287.311.7.349.92.369.641.057 1.284.094 1.926.137.116.588.274 1.155.442 1.66l-.907.15.324 1.971 7.522-1.24-.324-1.971-1.47.241c.02-.28.057-.56.103-.838a11.5 11.5 0 0 0 1.59-.332" fill="#18252C"/>
        <path d="M86.071 338.968c.024 1.535 1.447 2.645 2.791 3.388 2.367 1.308 5.033 2.253 7.731 2.065.893-.062 1.772-.246 2.647-.434 5.491-1.179 11.218-2.499 16.648-1.062.672.177 1.507.352 1.966-.171.154-.178.234-.412.271-.645.174-1.067-.448-2.117-1.238-2.854-2.095-1.95-5.225-2.262-8.082-2.089-2.602.159-5.177.634-7.781.774a30.402 30.402 0 0 1-10.84-1.383c-.773-.245-1.935-.995-2.686-.455-.782.562-1.443 1.921-1.427 2.866" fill="#18252C"/>
        <path d="M98.156 340.256c-.182-.23-.398-.445-.668-.56-.255-.109-.54-.12-.817-.135-1.982-.095-3.972-.352-5.85-.993-1.372-.467-2.665-1.13-3.729-2.084-.59.664-1.034 1.71-1.02 2.483.024 1.536 1.445 2.646 2.79 3.389 2.368 1.308 5.032 2.253 7.73 2.065.718-.05 1.426-.185 2.131-.33.457-1.266.273-2.773-.567-3.835" fill="#2C383E"/>
        <path d="M132.383 405.679c0 7.17-5.815 12.982-12.987 12.982-7.174 0-12.988-5.812-12.988-12.982 0-7.17 5.814-12.982 12.988-12.982 7.172 0 12.987 5.812 12.987 12.982" fill="#324550"/>
        <path d="M119.396 395.66c-5.527 0-10.022 4.495-10.022 10.019 0 5.523 4.495 10.018 10.022 10.018 5.525 0 10.02-4.495 10.02-10.018 0-5.524-4.495-10.019-10.02-10.019m0 22.111c-6.67 0-12.099-5.424-12.099-12.092s5.429-12.093 12.099-12.093 12.097 5.425 12.097 12.093-5.427 12.092-12.097 12.092" fill="#F2FBFF"/>
        <path d="M152.196 341.437c-.446-2.164-2.834-3.996-3.842-4.907-3.028-2.735-7.995-4.487-8.735-4.653-.68-.152-2.293 3.088-3.864 6.808-.314.744-.626 1.508-.93 2.267-1.414 3.541-2.622 6.993-2.83 7.984-.01.055.15.162.417.302 1.16.608 4.715 1.536 4.615 1.738-.196.406-.691 1.669-1.478 5.9-.787 4.232-1.759 18.445-1.686 17.58-.273 3.555-2.12 9.713-2.623 11.722-.382 1.533.49 3.532 1.965 4.097.651.249 1.365.284 2.06.24 1.685-.105 3.481-.77 4.303-2.244.289-.518.853-4.68 5.334-18.912 2.091-6.641 8.227-23.403 7.294-27.922" fill="#FDD0AA"/>
        <path d="M134.429 367.042c.625.172 1.245.339 1.847.471 3.26.718 5.366 1.13 8.626 1.846 3.99-11.312 8.357-25.09 7.806-27.762-.447-2.165-3.346-4.156-4.356-5.067-3.027-2.734-7.993-4.487-8.733-4.653-.68-.152-2.293 3.089-3.864 6.809a128.85 128.85 0 0 0-.93 2.266c-1.413 3.541-2.622 6.993-2.83 7.984-.011.055.15.162.418.302 1.16.608 4.713 1.536 4.615 1.738-.197.406-.692 1.669-1.478 5.9-.377 2.022-.794 6.32-1.121 10.166M140.384 384.851a69.817 69.817 0 0 1-5.542-.99c-1.02-.229-1.907-.595-2.913-.888a52.087 52.087 0 0 1-.688 3.206c-.383 1.532.488 3.531 1.963 4.096.652.25 1.366.284 2.061.24 1.685-.104 3.481-.77 4.303-2.245.288-.516.586-1.073.61-1.665.017-.434.091-1.036.206-1.754" fill="#18252C"/>
        <path d="M155.082 396.12c.34-.035.596-.373.61-.714.014-.34-.173-.665-.428-.894-.253-.228-.568-.374-.883-.508-1.515-.65-3.112-1.106-4.596-1.823a21.309 21.309 0 0 1-6.376-4.706l-.765-.827c-.628-.68-1.277-1.376-2.11-1.785-.144-.071-.3-.134-.46-.121-.28.024-.485.268-.629.51-.192.322-.388.697-.47 1.064-.793.193-1.555.5-2.26.907-.517.298-1.046.663-1.642.648-.548-.014-1.04-.356-1.391-.776-.353-.42-.593-.918-.877-1.385-.286-.468-.613-1.039-1.148-1.156-.264-.057-.447.25-.538.505a38.206 38.206 0 0 0-1.615 6.135c1.74 1.504 4.028 2.276 6.262 2.82 2.234.546 4.526.848 6.737 1.477 2.305.656 4.61 1.678 6.992 1.425 1.201-.127 2.364-.578 3.572-.568.628.005 1.389-.165 2.015-.228" fill="#FF9A00"/>
        <path d="M129.495 391.051s-1.483 1.481-1.526 2.44c-.043.956 1.987 2.131 7.348 3.256 5.36 1.125 10.43 1.597 13.986 1.476 3.555-.123 5.605-.658 6.1-1.545.496-.887.288-1.325.288-1.325s-4.755 1.34-8.861.876c-3.865-.438-8.883-2.355-11.736-3.302-2.58-.856-5.6-1.876-5.6-1.876" fill="#E1E0E3"/>
        <path d="M148.102 397.892c-3.846.169-8.252-.557-10.638-1.041-2.386-.483-5.773-1.381-7.535-2.097-.998-.407-1.6-1.01-1.934-1.458a1.175 1.175 0 0 0-.026.194c-.043.958 1.988 2.133 7.348 3.257 5.36 1.125 10.43 1.598 13.986 1.475 3.259-.111 5.25-.57 5.943-1.33-1.375.3-4.325.877-7.144 1" fill="#2D2D2D"/>
        <path d="M149.785 392.181a21.309 21.309 0 0 1-6.376-4.706l-.765-.827c-.628-.68-1.278-1.376-2.11-1.785-.144-.071-.3-.134-.46-.121-.28.024-.485.268-.629.51-.18.3-.36.647-.452.99l.043.072c.079.121.193.212.302.305 1.526 1.29 2.357 3.287 3.979 4.453.668.48 1.437.794 2.201 1.099 1.265.506 2.58 1.006 3.94.957.422-.015.88-.105 1.151-.427a.789.789 0 0 0 .081-.116c-.304-.126-.607-.26-.905-.404" fill="#E46B00"/>
        <path d="M93.626 334.061a21.398 21.398 0 0 0 5.571 6.125c6.295 4.682 11.68 5.572 19.163 7.57 5.515 1.47 11.104 2.639 16.641 4.02 2.975-2.339 9.327-13.624 10.5-19.423-6.65-2.668-22.711-8.89-29.362-11.558-1.823-.731-3.746-1.57-5.711-1.82-1.57-.202-2.859.122-4.415-.34-4.409-1.31-5.186-2.32-9.75-3.026-.567-.088-1.175-.164-1.69.087-.54.265-.858.832-1.112 1.378-2.492 5.368-2.663 12.273.165 16.987" fill="#2C3F48"/>
        <path d="M103.696 290.973c-10.34 15.018-13.202 28.099-12.759 29.146.314.74 5.989 4.324 13.683 5.408 9.385 1.324 17.11.648 19.493.24 3.522-.6 3.982-.154 3.607-3.603-.653-6.001.353-9.625 1.91-14.706 3.039-9.912 11.772-16.078 13.756-24.302 3.064-12.693-5.19-18.344-6.718-17.908-10.077 2.879-19.014 5.45-32.972 25.725" fill="#F4BE14"/>
        <path d="M144.164 239.068c5.271-1.609 16.843 3.955 17.357 6.499 1.36 6.719-1.947 19.61-4.872 25.246-.21.405-16.255-3.893-16.952-4.575.366-1.637 1.048-2.489-.67-4.616-.263-5.407-.82-10.352.423-14.778 1.245-4.427 2.52-7.106 4.714-7.776" fill="#FDD0AA"/>
        <path d="M155.386 270.665c-.301-.42-.723-.777-1.143-1.086-2.181-1.613-6.414-1.353-8.933-2.361-1.725-.692-3.53-1.309-5.374-1.388.215.4.479.768.81 1.093.665.651 13.36 3.62 14.64 3.742" fill="#EF816B"/>
        <path d="M141.046 262.65c.6-.472 1.02-.48 2.121-.162 1.323.384 2.639.856 3.8 1.611 1.007.656 4.642 1.585 3.74 2.482-1.782 1.768-7.067 10.914-7.28 11.033-.246.136-1.43-.3-1.625-.509-1.625-1.725-5.788-9.015-5.13-9.799 1.716-2.043 1.845-2.225 3.758-4.095.238-.232.436-.417.616-.56M161.655 260.614c.443.406.355.7-.105 1.1-.168.145-1.687.801-2.374.682.29-1.517.617-3.025.981-4.525.3-1.238.473-2.963 1.115-4.055-.204 2.07-.546 5.943.383 6.798" fill="#FDD0AA"/>
        <path d="M157.48 265.034a.287.287 0 0 1-.084-.01 3.459 3.459 0 0 1-2.256-1.941.28.28 0 0 1 .143-.368.282.282 0 0 1 .367.144 2.943 2.943 0 0 0 1.891 1.629.278.278 0 0 1-.06.546" fill="#EF816B"/>
        <path d="M157.372 254.046a.28.28 0 0 1-.01-.533 7.548 7.548 0 0 1 2.157-.353.279.279 0 0 1 .01.557 6.98 6.98 0 0 0-1.998.327.284.284 0 0 1-.16.002" fill="#4E4241"/>
        <path d="M139.826 263.568c.815.407 3.057.098 4.515-1.133 1.61-1.545 2.68-4.553 3.925-7.56.031-.077 1.68-.511 1.915-.68.755-.543 1.408-1.256 1.933-2.018 1.032-1.494 1.613-3.309 1.563-5.128 2.537.22 5.087-.18 7.58-.698 5.195-1.08.83-5.534-1.84-6.642a14.333 14.333 0 0 0-1.451-.509c-3.74-1.1-18.423-4.38-17.731 4.011-3.853 1.48-4.084 16.607-.41 20.357" fill="#38393A"/>
        <path d="M149.468 254.626c-.064-.476.128-2.008-1.369-2.318-.804-.167-2.795-.254-3.147 3.535-.177 1.907 1.099 3.108 1.885 3.432.97.4 1.68-.447 1.762-.948" fill="#FDD0AA"/>
        <path d="M148.094 257.1a.28.28 0 0 1-.16-.336c.152-.518.16-1.089.02-1.61-.053-.204-.117-.329-.203-.404a.368.368 0 0 0-.325-.078.369.369 0 0 0-.245.227.28.28 0 0 1-.355.17c-.165-.072-.222-.21-.17-.355.1-.28.34-.503.628-.58.29-.076.61 0 .832.196.227.198.323.483.375.68.169.628.16 1.289-.023 1.911a.28.28 0 0 1-.347.189l-.027-.01M161.521 245.567c-.295-1.457-4.216-3.903-8.504-5.426-.563.3-1.077.686-1.472 1.185-.494.623-.796 1.375-1.03 2.134-.281.918-.473 1.888-.333 2.84.114.766.469 1.508 1.058 2.022.547.476 1.27.537 1.962.685 1.947.414 3.93.66 5.919.733.902.034 1.804.021 2.706-.017.028-1.531-.06-2.946-.306-4.156" fill="#EF816B"/>
        <path d="M138.359 292.683c-.139-1.73-.433-3.438-.948-5.099-1.08-3.477-3.25-6.78-6.357-8.759-2.306-1.468-6.447-2.905-6.779.885-.125 1.431.503 3.151.593 4.602.148 2.362.12 4.74.267 7.104.295 4.746.824 9.477 1.583 14.171.316 1.945.85 4.086 1.904 5.698a52.728 52.728 0 0 1 1.008-3.827c1.786-5.827 5.535-10.357 8.729-14.775" fill="#E08D0F"/>
        <path d="M119.396 407.235a1.555 1.555 0 0 1-.537-3.017l19.582-7.201a1.556 1.556 0 0 1 1.074 2.922l-19.582 7.2a1.554 1.554 0 0 1-.537.096" fill="#505F67"/>
        <path d="M140.44 397.94a1.56 1.56 0 0 0-2-.923l-5.089 1.872 4.432 1.687 1.732-.637a1.557 1.557 0 0 0 .925-1.998M119.64 405.765a.428.428 0 1 1-.856 0 .428.428 0 0 1 .856 0" fill="#293439"/>
        <path d="m142.624 400.874-8.55-2.012a1.16 1.16 0 0 1-.865-1.396l.315-1.342a1.16 1.16 0 0 1 1.396-.864l8.553 2.011a1.16 1.16 0 0 1 .864 1.395l-.315 1.343a1.162 1.162 0 0 1-1.398.865" fill="#505F67"/>
        <path d="M184 382.48c-.202-.113-.625-.051-1.088.073l-2.497-8.713a.87.87 0 0 0-1.077-.597l-3.314.95a.87.87 0 0 0-.597 1.076l.842 2.94c-1.916-.181-4.676-.415-8.027-.613a.472.472 0 0 0-.503.464v4.163c0 .25.198.453.447.467 4.225.24 7.732.344 9.478.388l.384 1.335a.87.87 0 0 0 1.075.597l.19-.053c-.075.166-.154.327-.207.51-.97 3.44 4.712.102 5.944-.43-.084.036-.87-2.456-1.05-2.557" fill="#FF9A00"/>
        <path d="M185.05 385.037c-.04.017-.228-.51-.439-1.088a24.11 24.11 0 0 1-3.02 1.804c-.33.164-.677.325-1.046.325-.37 0-.763-.207-.861-.562-.077-.276.036-.565.147-.829l-.545.333c-.066.145-.134.287-.18.448-.97 3.44 4.711.102 5.944-.431" fill="#DE7F00"/>
        <path d="M167.74 381.46v.764a.47.47 0 0 0 .446.466c4.225.24 7.732.344 9.479.389l-.244-1.318-9.682-.3z" fill="#D87100"/>
        <path d="M183.053 393.464c.763-.16 1.514-.389 2.207-.743.48-.246.96-.558 1.5-.56.538-.003 1.116.497.946 1.008-.137.416-.673.6-.806 1.018-.065.208-.016.432.033.644l.496 2.145c.025.11.058.228.148.294.113.081.269.05.404.013l5.754-1.529a9.184 9.184 0 0 0-.773-2.792c-.114-.25-.259-.512-.51-.622-.199-.086-.425-.06-.638-.026a11.65 11.65 0 0 0-2.432.665c-.143.056-.304.116-.448.062-.127-.049-.206-.173-.276-.29l-.61-1.018c-.066-.109-.133-.233-.109-.358.042-.197.275-.271.462-.347.44-.176.802-.57.885-1.037.083-.467-.144-.987-.569-1.198-.942-.392-2.33.028-3.318.094-.766.05-1.654-.035-2.39.219-1.881.647-.689 3.18.044 4.358" fill="#2D4551"/>
        <path d="M82.697 423.52c-1.435 0-9.549-.216-12.62-4.82-3.343-5.014-.084-8.67-.05-8.706a.381.381 0 0 1 .153-.103l43.471-15.75a.39.39 0 1 1 .266.73L70.54 410.587c-.41.498-2.606 3.497.185 7.68 3.057 4.587 12.004 4.47 12.118 4.477l38.491-4.917a.384.384 0 0 1 .437.337.39.39 0 0 1-.337.435L82.9 423.52a7.567 7.567 0 0 1-.203.002" fill="#324550"/>
        <path d="M164.897 325.737a5.106 5.106 0 0 0 2.125-.16c.955-.282 1.803-.835 2.716-1.232 2.275-.984 5.365-.22 5.138 2.806-.065.873-.483 1.725-.345 2.588.021.136.064.281.177.361.25.179.571-.092.758-.338.853-1.128 1.748-2.386 1.675-3.799-.027-.518-.186-1.018-.358-1.507a26.338 26.338 0 0 0-1.524-3.507c-.305-.582-.647-1.169-1.179-1.554-.684-.496-1.574-.582-2.416-.65l-6.62-.535c-.185-.014-.376-.033-.537-.124-.243-.14-.362-.42-.526-.648-.343-.48-.776-.465-1.224-.738-.535-.325-1.011-.819-1.485-1.225a88.917 88.917 0 0 1-2.95-2.645 114.702 114.702 0 0 1-4.791-4.802c-1.288-1.36-6.403-6.08-7.286-7.227-7.712-10.016-12.29-1.398-13.178 1.168-.184.527 1.727 1.914 2.027 2.176 1.677 1.47 3.469 2.81 5.183 4.24 4.596 3.832 9.6 7.169 14.86 10.02 1.426.774 2.88 1.492 4.328 2.221 1.63.819 1.385 2.79 2.876 4.014.127.103.259.202.395.292.646.43 1.392.703 2.161.805" fill="#FDD0AA"/>
        <path d="M175.259 320.95c-.304-.582-.647-1.17-1.178-1.555-.685-.495-1.575-.581-2.419-.65l-6.618-.535c-.186-.015-.377-.032-.537-.125-.244-.14-.362-.418-.527-.647-.343-.48-.775-.466-1.224-.738-.507-.308-.584-1.15-1.035-1.544-.54.83-1.388 2.169-1.801 2.828-.454.727-1.136 1.991-1.564 2.734.29.146.82-.238 1.11-.092 1.629.819 1.383 2.79 2.875 4.014.127.104.259.201.395.292a5.14 5.14 0 0 0 2.16.805 5.106 5.106 0 0 0 2.126-.16c.954-.282 1.804-.836 2.717-1.232 2.275-.984 5.363-.22 5.138 2.806-.066.873-.485 1.724-.346 2.589.022.135.065.28.177.36.25.18.571-.092.757-.337.854-1.13 1.749-2.387 1.676-3.8-.027-.517-.186-1.018-.357-1.507a26.343 26.343 0 0 0-1.525-3.507" fill="#2C3F48"/>
        <path d="M175.739 325.164c.001-.04.001-.086-.022-.119-.043-.058-.13-.05-.201-.05-.588 0-.759-.827-1.243-1.158-.228-.157-.519-.191-.77-.31-.25-.119-.476-.397-.375-.655-.257.32-.722.378-1.13.327-.405-.052-.805-.187-1.215-.163-.314.019-.615.131-.911.242-1.148.435-2.316.878-3.542.953-1.225.077-2.54-.272-3.348-1.195-.892-1.019-1.026-2.537-1.914-3.559-.39-.449-.9-.758-1.426-1.027-.426.725-.937 1.663-1.286 2.269.29.145.9.195 1.192.342 1.628.819 1.301 2.355 2.794 3.58a5.115 5.115 0 0 0 2.555 1.096 5.12 5.12 0 0 0 2.125-.159c.954-.284 1.804-.837 2.717-1.232 2.275-.986 5.363-.22 5.138 2.806-.066.872-.485 1.724-.346 2.588.022.136.065.28.177.36.011.008.023.004.034.01.098-.251.179-.511.246-.775.352-1.371.706-2.756.75-4.17" fill="#95A6AD"/>
        <path d="M171.26 322.462c.534-.155 1.082-.417 1.344-.906.16-.297.194-.643.217-.98.037-.558.046-1.119.029-1.68a10.1 10.1 0 0 0-1.187-.15l-5.207-.422c.015.221.045.45.04.592-.025.773-.12 1.545-.283 2.302-.028.128-.055.267.01.379.04.068.106.114.172.156a6.022 6.022 0 0 0 4.865.709" fill="#4A8092"/>
        <path d="m159.042 321.442-.848-.537a.63.63 0 0 1-.194-.867l2.939-4.63a.63.63 0 0 1 .867-.194l.847.536c.293.186.38.574.194.868l-2.939 4.63a.627.627 0 0 1-.866.194" fill="#95A6AD"/>
        <path d="M143.579 310.992a108.221 108.221 0 0 0 5.96-6.848c-1.478-1.426-2.871-2.794-3.294-3.343-7.711-10.016-12.289-1.399-13.179 1.168-.182.527 1.729 1.913 2.027 2.175 1.679 1.472 3.47 2.81 5.184 4.24a85.238 85.238 0 0 0 3.302 2.608" fill="#2C3F48"/>
        <path d="M145.02 299.34a18.55 18.55 0 0 0-.607-.63c-3.286-.563-6.685.262-9.752 1.587a9.771 9.771 0 0 0-1.14.582c-.199.417-.352.795-.455 1.09-.182.527 1.729 1.914 2.027 2.175.372.326.76.63 1.14.945a1402.3 1402.3 0 0 0 1.975-1.288l6.681-4.36c.045-.029.09-.064.13-.1" fill="#162329"/>
        <path d="M123.257 275.029c-.386 2.167 3.566 19.362 8.54 29.926 3.91-1.59 12.398-5.162 14.16-5.88.039-.015-3.415-17.757-3.735-19.397-.52-2.67-1.054-5.38-2.297-7.8-.976-1.903-4.433-5.929-9.467-3.92-3.228 1.289-6.543 3.375-7.201 7.071" fill="#F4BE14"/>
        <path d="M108.234 308.275c3.046 2.944 7.568 4.182 11.75 3.497 4.182-.684 8.59-4.597 11.12-7.997-1.338 10.108-15.343 16.556-22.375 14.407-8.58-2.623-13.195-11.169-13.316-12.555-.28-3.19 8.027-8.625 8.073-7.672.148 3.02 2.573 8.215 4.748 10.32" fill="#005853"/>
        <path d="M104.306 301.514c-.464-1.298-.77-2.55-.819-3.559-.047-.953-8.354 4.482-8.075 7.671.037.418.488 1.49 1.325 2.847.967-.592 1.839-1.248 2.41-1.666a22.578 22.578 0 0 0 5.159-5.293M128.377 266.992c3.277-1.347 6.484-2.187 9.978-1.603l-.546.577c-6.663 2.182-15.668 6.916-20.533 11.964-.638.662-1.727-2.685-1.528-3.262.39-1.13 1.99-1.93 2.925-2.592 2.99-2.117 6.325-3.695 9.704-5.084" fill="#003430"/>
        <path d="M128.377 266.992c-3.379 1.388-6.713 2.967-9.704 5.084-.935.662-2.535 1.463-2.925 2.592-.13.38.297 1.958.787 2.805.405-.43.795-.836 1.159-1.142a63.72 63.72 0 0 1 9.033-6.344 63.071 63.071 0 0 1 5.403-2.794c1.181-.54 2.392-1.048 3.67-1.28.718-.13 1.514-.212 2.113-.576-3.323-.446-6.4.365-9.536 1.655" fill="#005853"/>
        <path d="M118.698 277.846c.25-.493.496-1.014.45-1.554-.034-.422-.25-.82-.526-1.166-1.259-1.575-3.737-2.074-5.844-1.644-2.107.43-3.908 1.616-5.541 2.873-7.616 5.864-12.94 13.831-16.359 22.278-.912 2.252-1.56 5.099.366 6.783 3.036 2.656 5.193.697 7.265-1.46 2.605-2.71 5.178-5.442 7.64-8.254 4.852-5.545 9.298-11.424 12.549-17.856" fill="#007976"/>
        <path d="M99.572 302.815c-.038-.17-.187-.286-.327-.39l-3.051-2.246a1.239 1.239 0 0 0-1.53.053 48.7 48.7 0 0 1-4.533 3.35 3.52 3.52 0 0 0 1.112 1.834c3.037 2.655 5.194.696 7.267-1.46.357-.37.706-.748 1.061-1.12 0-.007.002-.015.001-.021M106.429 291.029a132.069 132.069 0 0 0 7.576-9.916c1.334-1.93 2.638-3.941 3.24-6.21.052-.19.086-.497.083-.83a5.878 5.878 0 0 0-1.769-.61c-.188.882-.264 2.09-.531 2.599a86.316 86.316 0 0 1-9.69 14.668l1.09.299" fill="#005853"/>
        <path d="M105.512 277.794a46.759 46.759 0 0 0-2.138 1.953c.778 1.47.726 3.381-.007 4.914-.916 1.914-2.678 3.298-4.549 4.3-1.153.618-2.442 1.123-3.76 1.295a56.999 56.999 0 0 0-.994 1.714c.994.745 2.56.402 3.805-.039-.313.645-.02 1.516.62 1.84.642.323 1.518.04 1.85-.595.204-.389.21-.85.338-1.27.298-.984 1.2-1.637 1.988-2.3a15.712 15.712 0 0 0 3.698-4.542c.66-1.221 1.163-2.575 1.097-3.962-.064-1.34-.76-2.7-1.948-3.308" fill="#E6F9F7"/>
        <path d="M125.086 280.153a.389.389 0 0 1-.377-.483c.388-1.55 1.833-4.777 3.428-6.56a.388.388 0 1 1 .58.519c-1.456 1.627-2.876 4.725-3.254 6.23a.388.388 0 0 1-.377.294" fill="#E08D0F"/>
        <path d="M156.834 269.367a.871.871 0 0 0-.3-.13c-.078-.012-.158-.003-.234-.016-.306-.056-.437-.414-.67-.617a.284.284 0 0 0-.175-.083.333.333 0 0 0-.16.052c0 .004-.022.017-.03.024a45.073 45.073 0 0 1-3.603-4.698 1.452 1.452 0 0 0-.02-.37c-.083-.433-.338-.89-.593-1.285a39.515 39.515 0 0 0 1.007-10.784c-.004-.068-.01-.144-.061-.189-.048-.041-.117-.042-.181-.04-.334.017-1.148.063-1.387.333-.23.261-.03.98-.01 1.324a36.478 36.478 0 0 1-.385 7.822c-.011.073-.08.36-.147.66-.116.008-.23.027-.34.058-.223.064-.446.157-.614.318a1.01 1.01 0 0 0-.235.372c-.257-.036-.523-.057-.717-.111-1.156-.324-2.24-.86-3.301-1.414-.542-.283-1.078-.58-1.613-.874.015-.018.033-.033.048-.05a.978.978 0 0 0 .21-.303c.045-.12.042-.251.039-.38-.009-.356.135-1.215-.154-1.481-.291-.272-1.006.05-1.323.143a.42.42 0 0 0-.16.075c-.16.136-.047.39-.036.598.01.187-.073.366-.18.518-.287.404-.743.659-1.216.809-.472.15-.967.21-1.454.3-.431.081-.858.186-1.276.318-.046.014-.096.032-.117.075-.017.036-.008.077 0 .115.06.27.14.534.236.793.04.103.091.216.194.258.054.02.114.019.172.016l3.004-.14c.119-.006.24-.012.352-.054a.95.95 0 0 0 .306-.215c.618.535 1.391.892 2.15 1.222 1.687.734 3.438 1.472 5.267 1.553.251.333.604.665.985.857.05.07.094.133.124.182.169.284.338.568.513.85.679 1.093 1.42 2.16 2.317 3.09.278.29.574.56.883.817-.05.071-.085.146-.07.215.044.176.433.352.572.448.061.043.127.09.151.16.028.077 0 .162 0 .245 0 .272.29.442.544.54.495.192 1.085.323 1.532.036.326-.21.492-.59.626-.954.047-.126.094-.257.08-.39-.026-.286-.301-.473-.55-.618" fill="#001A17"/>
        <path d="M136.999 258.216c1.074.896 5.65.12 6.43-.36 1.35-1.028 1.9-3.464 2.467-5.163 0 0 5.219-.134 6.825-1.472 1.607-1.338 1.875-2.943 1.875-2.943s9.442.699 11.182.298c0 0-.268-1.874-2.008-2.275 0 0 1.132-10.733-12.923-10.733-14.053 0-15.392 8.562-15.258 9.365 0 0-1.45.753-1.31 3.019.25 4.053 1.342 9.969 2.72 10.264" fill="#003632"/>
        <path fill="#CA3600" d="m124.294 385.531 4.542-1.254-1.043 1.541-4.286.966z"/>
        <path d="M138.416 249.046c-.07-.068-.179-.064-.276-.057-1.27.102-2.522.006-3.78-.004.089.997.218 2.059.386 3.098.438.026.885-.024 1.309-.136.807-.213 1.55-.613 2.285-1.011.122-.065.25-.139.314-.26a.638.638 0 0 0 .053-.231 2.587 2.587 0 0 0-.23-1.302.309.309 0 0 0-.061-.097" fill="#FF7400"/>
        <path d="M149.865 261.707a.4.4 0 0 1 .161.013c.062.021.111.068.157.115a5.453 5.453 0 0 1 1.13 1.646.45.45 0 0 1 .054.242c-.012.083-.088.162-.17.148a6.667 6.667 0 0 0-1.102-1.63c-.12-.131-.262-.265-.438-.277-.074-.004-.148.014-.221.004-.39-.048.317-.254.429-.261M155.684 269.012l.182.272c.032.046.064.094.113.121.1.057.223.007.338-.004.307-.031.564.215.773.444.04.043.08.088.09.147a.305.305 0 0 1-.01.124c-.035.147-.084.29-.147.428-.107.004-.146-.136-.177-.239a.673.673 0 0 0-.411-.432.673.673 0 0 0-.592.075c-.221-.247-.445-.54-.571-.851-.049-.12-.078-.242.077-.29.154-.047.26.094.335.205" fill="#2E4340"/>
        <path d="M175.758 326.477a3.286 3.286 0 1 1-6.571 0 3.286 3.286 0 0 1 6.571 0" fill="#223139"/>
        <path d="M174.54 326.477a3.286 3.286 0 1 1-6.575-.001 3.286 3.286 0 0 1 6.575.001" fill="#324550"/>
        <path d="M173.848 326.477a2.595 2.595 0 1 1-5.19-.002 2.595 2.595 0 0 1 5.19.002" fill="#223139"/>
        <path d="M352.61 454.059c0-1.466 36.103-2.653 80.639-2.653 44.536 0 80.639 1.187 80.639 2.653 0 1.465-36.103 2.652-80.64 2.652-44.535 0-80.638-1.187-80.638-2.652" fill="#CCC964"/>
        <path d="M491.821 392.953c.568-.043 1.09-.35 1.576-.644 1.385-.842 1.958-2.588 1.998-4.207.017-.668-.043-1.352-.305-1.966-.595-1.394-2.546-2.157-4.003-1.734-5.729 1.662-21.569 2.223-27.12 3.863-3.415 1.008-6.06 2.389-6.2 2.52-.208.198-2.108-4.379-2.387-4.309-2.156.539-16.456 6.548-16.09 7.927.247.939 3.474 8.976 7.775 10.158 3.08.847 38.814-11.152 44.756-11.608" fill="#FDD0AA"/>
        <path d="M490.146 393.215a67.575 67.575 0 0 0-1.151-5.277 48.792 48.792 0 0 0-.84-2.901c1.135-.195 2.135-.404 2.932-.635 1.457-.424 3.408.34 4.003 1.734.262.614.322 1.298.305 1.965-.04 1.62-.613 3.366-1.998 4.208-.486.295-1.008.601-1.576.644-.415.032-.99.125-1.675.262" fill="#18252C"/>
        <path d="M505.49 407.97c.017.372-.308.701-.674.769-.366.068-.745-.084-1.03-.323-.286-.238-.493-.556-.686-.873-.934-1.535-1.674-3.185-2.676-4.675a23.206 23.206 0 0 0-6.062-6.148l-1.01-.696c-.832-.573-1.683-1.165-2.254-2-.098-.144-.19-.303-.2-.478-.017-.305.214-.564.452-.756.319-.257.693-.525 1.076-.672a9.465 9.465 0 0 1 .63-2.576c.242-.604.554-1.23.445-1.871-.099-.587-.543-1.066-1.05-1.38-.508-.314-1.083-.497-1.63-.732-.55-.235-1.216-.5-1.425-1.057-.103-.276.2-.522.462-.659a41.594 41.594 0 0 1 6.371-2.688c1.89 1.643 3.077 3.992 4.01 6.316.932 2.325 1.611 4.749 2.633 7.035 1.064 2.384 2.521 4.71 2.617 7.319.048 1.314-.258 2.638-.062 3.938.102.677.036 1.524.064 2.208" fill="#FF9A00"/>
        <path d="M496.072 381.167s1.371-1.828 2.398-2.021c1.026-.194 2.606 1.814 4.648 7.42 2.04 5.605 3.333 10.998 3.75 14.85.417 3.853.155 6.144-.725 6.815-.88.673-1.384.516-1.384.516s.71-5.334-.425-9.69c-1.068-4.1-3.91-9.214-5.372-12.142-1.322-2.65-2.89-5.748-2.89-5.748" fill="#E1E0E3"/>
        <path d="M506.327 400.173c-.412-4.174-1.876-8.811-2.766-11.309-.89-2.498-2.381-6.01-3.426-7.799-.593-1.015-1.337-1.57-1.87-1.861.068-.025.137-.045.204-.059 1.027-.193 2.608 1.815 4.65 7.42 2.04 5.607 3.332 11 3.749 14.852.383 3.53.195 5.748-.518 6.612.112-1.53.278-4.798-.023-7.856" fill="#2D2D2D"/>
        <path d="M500.424 402.868a23.195 23.195 0 0 0-6.062-6.148l-1.01-.696c-.832-.574-1.683-1.166-2.253-2-.099-.145-.19-.303-.201-.478-.017-.305.214-.565.452-.756.297-.24.644-.488 1-.64.029.012.058.023.084.036.143.065.258.175.375.279 1.627 1.445 3.912 2.032 5.42 3.601.62.646 1.078 1.428 1.525 2.204.74 1.285 1.485 2.625 1.64 4.1.049.457.024.964-.282 1.306a.99.99 0 0 1-.113.107c-.184-.31-.374-.616-.575-.915" fill="#E46B00"/>
        <path d="M455.38 386.476c.28-.07 2.179 4.507 2.387 4.31.14-.133 2.785-1.512 6.2-2.52 3.564-1.054 11.367-1.662 18.015-2.403 0 0 .123-.135.313-.148.302-.046.445.063.445.063a94.203 94.203 0 0 1 1.68 8.844c-.01.093-.207.201-.395.252-.095.025-.404.037-.447-.023-12.61 3.462-34.152 10.36-36.513 9.71-4.301-1.182-7.528-9.218-7.776-10.158-.365-1.38 13.936-7.389 16.091-7.927" fill="#18252C"/>
        <path d="M389.277 440.951c-.393 1.273-1.123 2.532-2.306 3.146-1.371.712-3.156.303-4.275-.76-1.119-1.064-1.622-2.665-1.598-4.208.025-1.544 10.428-36.735 10.966-38.182 1.265-3.403 5.553-10.985 5.554-10.724.002.318 14.212 6.27 14.528 6.312 0 0-5.097 5.868-6.091 7.59-1.938 3.357-2.394 4.966-3.878 9.372-2.805 8.334-9.692 17.092-12.9 27.454" fill="#FDD0AA"/>
        <path d="M387.024 438.856c.872.338 1.775.601 2.697.765-.15.441-.305.883-.444 1.33-.394 1.273-1.123 2.533-2.307 3.146-1.37.711-3.155.303-4.274-.76-1.118-1.064-1.621-2.664-1.597-4.208.004-.248.278-1.371.733-3.077 1.649 1.077 3.353 2.092 5.192 2.804M392.064 400.947c1.265-3.403 5.553-10.984 5.554-10.725.002.318 14.212 6.27 14.528 6.312 0 0-5.097 5.868-6.091 7.592-1.938 3.355-2.394 4.965-3.878 9.37-2.15 6.39-6.698 13.028-10.149 20.446.101.136-.003.672-.09.867-.103.224-.339.418-.481.393a19.768 19.768 0 0 1-2.054-.86 70.179 70.179 0 0 1-6.178-3.332c-.035-.058-.033-.317.003-.447a.925.925 0 0 1 .227-.367c3.11-10.983 8.236-28.244 8.61-29.25" fill="#18252C"/>
        <path d="M374.909 318.672c-.14.128-.296.257-.483.296-.591-.545-1.86-.86-2.455-1.199-1.258-.715-2.74-1.364-4.052-1.973-1.312-.61-2.489-1.213-3.355-2.372-.091-.12-.18-.255-.184-.405-.004-.157.084-.3.17-.432 1.41-2.191 2.822-4.381 4.234-6.572.107-.167.232-.347.423-.396.228-.06.454.085.644.222l2.746 1.987c.056.04.117.082.184.076.133-.012.175-.177.237-.295.163-.31.62-.35.922-.176.304.175.488.494.66.798.37.66.75 1.348.805 2.104.05.704-.189 1.423-.017 2.107.13.514.476.943.821 1.348.345.404.705.816.872 1.32.442 1.327-1.313 2.785-2.172 3.562" fill="#ECBB95"/>
        <path d="M371.371 306.142c.42.45.84.92 1.064 1.494.038.098.07.204.05.307a.598.598 0 0 1-.143.251 4.41 4.41 0 0 1-.97.862c-.081.052-.175.105-.27.088-.062-.013-.114-.052-.165-.09-.991-.767-2.541-2.237-3.465-3.085-.799-.733-.349-2.184 1.457-2.347.868.641 1.767 1.796 2.442 2.52" fill="#FDD0AA"/>
        <path d="M370.336 308.626c.419.45.84.92 1.063 1.494.038.098.07.204.05.307a.598.598 0 0 1-.143.252 4.389 4.389 0 0 1-.97.861c-.08.053-.174.105-.269.088-.063-.013-.115-.052-.165-.09-.992-.767-2.54-2.237-3.465-3.085-.8-.733-.35-2.184 1.456-2.346.868.64 1.768 1.795 2.443 2.52" fill="#FDD0AA"/>
        <path d="M368.888 310.614c.46.407.926.836 1.203 1.384.048.095.091.197.08.302a.598.598 0 0 1-.118.263 4.41 4.41 0 0 1-.882.95c-.075.062-.163.123-.26.114a.41.41 0 0 1-.173-.073c-1.062-.668-2.745-1.98-3.747-2.734-.866-.654-.56-2.14 1.223-2.478.925.555 1.933 1.616 2.674 2.272" fill="#FDD0AA"/>
        <path d="M367.739 312.718c.49.37.986.762 1.303 1.288.055.09.106.188.103.293a.582.582 0 0 1-.1.271 4.387 4.387 0 0 1-.81 1.013c-.071.065-.154.133-.252.132-.063 0-.121-.031-.177-.06-1.11-.585-2.89-1.766-3.947-2.441-.913-.585-.716-2.089 1.039-2.557.966.484 2.05 1.464 2.84 2.061" fill="#FDD0AA"/>
        <path d="M397.076 325.39c-.954-1.379-20.971-12.783-20.971-12.783.187-.657.934-4.341.712-5.01-.114-.342-.365-.617-.608-.88-.78-.84-1.767-1.757-2.822-1.547-.448.088-3.593 3.936-3.453 4.088.312.34.777.488.896.459a5.452 5.452 0 0 0 2.899-1.833c-.773 1.63-1.21 4.189-.7 6.001-1.2.139-6.21 1.554-5.019 1.941 1.044.34 5.572 2.735 6.285 3.112.126.066 23.319 18.988 24.894 18.825 1.876-.194 5.45-5.442 5.578-5.545.734-.595-7.203-6.364-7.691-6.828" fill="#FDD0AA"/>
        <path d="M397.542 326.334c-.125-.23-.19-.48-.188-.717 1.473 1.163 8.088 6.055 7.413 6.602-.06.048-.893 1.247-1.95 2.516l-.025-.037-1.852-2.952c-1.125-1.79-2.39-3.554-3.398-5.412" fill="#EF816B"/>
        <path d="M425.31 308.421c-.796 3.016-16.249 22.99-18.97 25.805-2.923-2.443-9.356-8.456-10.024-9.361.637-1.062 11.683-21.465 13.016-24.365 1.335-2.9 8.436-4.801 11.218-2.123 2.782 2.679 6.074 5.07 4.76 10.044" fill="#007C79"/>
        <path d="M408.183 314.488c.692-.292 1.476-.303 2.214-.172 1.668.297 3.154 1.292 4.287 2.552 1.05 1.171 1.818 2.566 2.476 3.998-3.452 4.682-7.442 9.718-10.821 13.36l-2.545-2.272c.179-1.966 2.57-16.698 4.389-17.466" fill="#324550"/>
        <path d="M420.119 266.732c-4.453-2.855-16.59-.718-17.726 1.499-3.003 5.854-3.332 19.95.292 26.536.211.384 13.68-1.322 14.502-1.771.087-1.608-.32-2.571 1.819-4.092 1.648-4.928 3.447-9.352 3.447-13.764 0-4.414-.483-7.22-2.334-8.408" fill="#FDD0AA"/>
        <path d="M402.796 294.808c.387-.31.87-.529 1.338-.706 2.434-.924 5.023-1.38 7.612-1.66 1.774-.19 3.603-.292 5.327.115a4.304 4.304 0 0 1-1.033.799c-.783.429-12.03 1.672-13.244 1.452" fill="#EF816B"/>
        <path d="M416.872 289.33c-.43-.592-.816-.71-1.916-.7-1.324.011-2.661.105-3.93.502-1.1.344-2.156.935-2.916 1.788-.888.993-.427 2.256-.25 3.464a44.718 44.718 0 0 0 1.985 8.138c.075.218.158.442.323.607.192.189.469.27.738.33 1.39.3 2.844.14 4.265-.02 1.328-.152 2.686-.311 3.892-.875 1.208-.562 2.257-1.615 2.419-2.893.122-.972-.273-1.924-.677-2.82a77.763 77.763 0 0 0-3.51-6.843 7.667 7.667 0 0 0-.423-.678M398.512 284.373c-.497.292-.474.585-.122 1.053.128.17 1.42 1.094 2.09 1.118.033-1.48.03-2.961-.007-4.442-.032-1.223.154-2.875-.229-4.03-.225 1.983-.688 5.687-1.732 6.3" fill="#FDD0AA"/>
        <path d="M401.66 290.436a.265.265 0 0 0 .08-.013 3.324 3.324 0 0 0 2.084-1.956.267.267 0 0 0-.5-.193 2.825 2.825 0 0 1-1.746 1.64.268.268 0 0 0-.174.335.268.268 0 0 0 .255.187" fill="#EF816B"/>
        <path d="M403.517 278.943a.266.266 0 0 0 .147-.49 7.242 7.242 0 0 0-1.9-.885.267.267 0 0 0-.153.512 6.733 6.733 0 0 1 1.76.82c.045.03.096.043.146.043" fill="#4E4241"/>
        <path d="M417.763 290.495c-.858.164-2.852-.703-3.879-2.219-1.085-1.845-1.292-4.902-1.662-8.003-.01-.08-.806-.432-.916-.505a4.82 4.82 0 0 1-.783-.628c-.518-.52-.869-1.164-1.108-1.854-.148-.426-.237-.862-.336-1.302-.13-.586-.512-.494-1.06-.674a8.888 8.888 0 0 1-2.841-1.554c.244.632.473 1.268.69 1.91.026.076.051.158.031.236-.064.252-.444.179-.662.037-1.607-1.036-2.733-2.655-3.814-4.23l.072.8c.02.231-.073.566-.296.508-.104-.028-.16-.137-.203-.236-.835-1.94-1.417-4.786-.25-6.723 1.051-1.742 3.198-2.464 5.113-2.693.488-.058.98-.088 1.472-.094 3.74-.045 13.945.893 17.197 6.53 1.444 4.705-2.397 18.183-6.765 20.694" fill="#38393A"/>
        <path d="M411.544 280.653c.23-.399.622-1.83 2.065-1.555.778.146 2.578.798 1.501 4.288-.54 1.756-2.113 2.355-2.933 2.355-1.008 0-1.329-1.011-1.217-1.487" fill="#FDD0AA"/>
        <path d="M411.858 283.35a.267.267 0 0 0 .266-.24 2.89 2.89 0 0 1 .571-1.435c.123-.161.225-.249.33-.284a.356.356 0 0 1 .317.05c.087.067.14.182.134.292a.268.268 0 0 0 .253.28c.174-.003.273-.105.282-.252a.891.891 0 0 0-.345-.746.898.898 0 0 0-.813-.13c-.274.093-.463.31-.582.466a3.384 3.384 0 0 0-.679 1.704.268.268 0 0 0 .238.294l.028.001" fill="#EF816B"/>
        <path d="M438.215 347.834c11.622 5.904 16.108 28.017 20.001 41.42-2.137 2.937-12.735 9.436-18.256 10.77-2.8-6.279-9.354-21.449-12.156-27.729-1.07-2.397-2.163-4.903-2.217-7.63-.085-4.323 2.55-8.27 5.764-10.45 3.214-2.18 3.224-5.664 6.864-6.38" fill="#2C3F48"/>
        <path d="M427.805 372.295c-1.07-2.397-2.165-4.903-2.217-7.63-.085-4.323 2.55-8.27 5.763-10.45 3.214-2.179 3.224-5.665 6.865-6.38 1.768.898 3.34 2.156 4.745 3.685.952 1.892 1.99 3.938 2.177 5.765.235 2.292-.833 5.276-1.348 7.504-1.176 5.1-2.839 10.141-5.444 14.703a34.57 34.57 0 0 1-4.546 6.246l-5.995-13.443" fill="#19272E"/>
        <path d="M414.246 403.452c.045.025 3.526-5.867 4.541-6.786 5.8-5.25 10.43-11.47 15.555-17.38 4.744-5.47 9.927-11.448 11.42-18.752.927-4.535.112-9.621-3.025-13.028-.378-.41-.8-.803-1.32-1.013-.54-.22-1.145-.222-1.73-.22-1.843.005-3.693.01-5.516.275-9.464 1.376-17.418 9.397-22.763 16.774-3.182 4.392-5.944 9.074-8.446 13.88a189.033 189.033 0 0 0-3.643 7.42c-.582 1.248-1.154 2.501-1.719 3.757-.259.577-1.415 2.263-1.188 2.898.114.32.412.535.693.727 5.132 3.513 11.73 8.378 17.14 11.448" fill="#324550"/>
        <path d="M425.983 298.193c6.521 9.019 9.322 20.475 11.725 31.34.923 4.173 1.78 8.498 4.188 12.03 2.482 3.64 6.427 6.148 8.652 9.95-3.44 4.352-8.738 7.1-13.993 8.878-8.264 2.795-17.053 4.678-25.7 3.518-2.23-10.688-3.673-21.168-5.395-31.95-.617-3.867-1.203-7.763-1.1-11.678.135-5.101.124-14.11 5.877-21.776 1.981-2.641 7.556-4.124 10.859-4.18 0 0 1.92-.237 4.887 3.868" fill="#008F8E"/>
        <path d="M451.961 341.901c-.176 1.108-.647 2.485-1.901 2.602-.45.04-.907-.107-1.35-.028-.519.093-.905.474-1.379.684-1.257.558-2.717-.177-4.111-.346-.51-.061-1.088-.067-1.438-.4-.651-.615.083-1.614-.07-2.446-.123-.69-.845-1.174-1.113-1.83-.253-.623-.068-1.313.177-1.937.145-.369.316-.74.608-1.032.375-.377.913-.587 1.432-.786l1.748-.67c.927-.357 1.982-.878 2.067-1.769.987-10.311-.301-16.553.319-22.032-3.713-.706-8.844-1.018-8.619-1.175.171-.118.908-11.499 1.12-11.533 1.534-.243 14.244 1.633 17.206 4.526 1.33 1.299-2.964 27.953-3.299 29.342-.693 2.882-.935 5.911-1.397 8.83" fill="#FDD0AA"/>
        <path d="M431.962 309.439a84.631 84.631 0 0 1 2.202 6.246c-1.429-.327-2.855-.695-4.25-1.046-5.047-1.267-10.058-3.023-14.33-6.064a80.547 80.547 0 0 1 16.378.864" fill="#324550"/>
        <path d="M444.95 303.432c.253-1.166.483-2.355.851-3.484 1.63.303 3.373.69 5.001 1.148-1.325 2.027-2.393 4.342-3.38 6.548a39.04 39.04 0 0 0-1.514 3.898l-.057.178a71.348 71.348 0 0 0-2.614-.366c.035-.253.072-.506.116-.757.423-2.41 1.078-4.773 1.597-7.165" fill="#EF816B"/>
        <path d="M418.952 294.86c1.994-.7 18.9.389 29.68 3.467-.903 3.95-2.98 12.537-3.388 14.316-5.92-.881-23.173-.996-25.6-.592-3.15.525-7.613-1.836-6.957-5.64.657-3.805 1.41-9.845 6.265-11.55" fill="#008F8E"/>
        <path d="M361.31 441.613c-.316-.194-.407-.645-.26-.985.148-.339.483-.568.84-.671.356-.103.733-.098 1.102-.08 1.787.08 3.56.387 5.35.386 2.887 0 5.76-.533 8.447-1.589l1.137-.447c.934-.368 1.897-.741 2.902-.749.174 0 .358.012.508.1.26.155.347.49.373.792.036.407.048.866-.042 1.263a9.38 9.38 0 0 1 1.778 1.951c.364.535.708 1.14 1.298 1.407.542.244 1.184.142 1.725-.102.541-.244 1.011-.617 1.51-.94.499-.321 1.088-.725 1.665-.587.285.068.319.455.287.747a41.424 41.424 0 0 1-1.317 6.753c-2.408.648-5.008.323-7.447-.198s-4.819-1.307-7.275-1.734c-2.561-.446-5.294-.535-7.502-1.906-1.112-.69-2.035-1.679-3.219-2.238-.615-.292-1.28-.816-1.86-1.173" fill="#FF9A00"/>
        <path d="M388.69 448.726s.748 2.146.338 3.101c-.41.955-2.947 1.146-8.713-.283-5.766-1.429-10.94-3.358-14.354-5.154-3.415-1.795-5.162-3.284-5.23-4.385-.065-1.099.346-1.43.346-1.43s4.011 3.552 8.24 5.034c3.981 1.395 9.787 1.89 13.018 2.31 2.923.38 6.354.807 6.354.807" fill="#E1E0E3"/>
        <path d="M367.289 446.633c3.679 1.98 8.322 3.347 10.881 4 2.558.652 6.289 1.373 8.347 1.503 1.168.075 2.041-.232 2.577-.51-.017.071-.04.139-.066.201-.41.955-2.948 1.145-8.713-.284-5.765-1.428-10.94-3.358-14.354-5.153-3.13-1.646-4.858-3.033-5.176-4.1 1.202.94 3.81 2.894 6.504 4.343" fill="#2D2D2D"/>
        <path d="M368.342 440.264c2.886 0 5.76-.534 8.447-1.59.378-.15.758-.299 1.136-.447.935-.368 1.899-.742 2.903-.748.175-.001.357.01.508.099.26.156.347.49.373.793.032.379.046.802-.026 1.18a1.066 1.066 0 0 1-.077.05c-.133.083-.288.117-.439.155-2.097.541-3.852 2.1-5.986 2.474-.88.154-1.778.098-2.669.035-1.473-.103-2.993-.233-4.299-.923-.405-.214-.809-.517-.923-.959a1.184 1.184 0 0 1-.024-.153c.358.021.716.034 1.076.034" fill="#E46B00"/>
        <path d="m446.872 333.599 2.912.207.192-2.7-2.912-.207a.426.426 0 0 0-.455.395l-.132 1.848c-.017.236.16.44.395.457" fill="#404452"/>
        <path d="m450.002 334.955 2.818.251a.895.895 0 0 0 .97-.812l.246-2.814a.897.897 0 0 0-.814-.97l-2.818-.251a.893.893 0 0 0-.97.812l-.246 2.813a.897.897 0 0 0 .814.97" fill="#404452"/>
        <path d="m450.396 334.644 2.391.213a.758.758 0 0 0 .823-.69l.21-2.387a.76.76 0 0 0-.692-.823l-2.391-.213a.758.758 0 0 0-.823.69l-.21 2.387a.761.761 0 0 0 .692.823" fill="#FFF"/>
        <path d="m450.52 334.477 2.173.194a.692.692 0 0 0 .75-.627l.19-2.172a.693.693 0 0 0-.628-.749l-2.175-.193a.69.69 0 0 0-.749.627l-.19 2.172a.693.693 0 0 0 .629.748" fill="#383838"/>
        <path d="M525.16 432.956c-8.028 3.844-10.137 15.036-6.673 23.231-3.643-.521-7.436 2.298-7.985 5.936-2.688-8.68-14.192-13.255-22.11-8.793.554-3.248-1.044-6.616-3.547-8.76-2.504-2.143-5.787-3.192-9.058-3.594-4.966-.61-10.262.25-14.301 3.202-5.942 4.343-8.082 12.19-8.845 19.51a83.432 83.432 0 0 0 .048 17.782c.204 1.858.516 3.815 1.71 5.253 1.666 2.005 4.528 2.435 7.122 2.676 37.66 3.48 75.705-3.824 113.353-.233 1.076.102 2.27.182 3.126-.478.617-.477.923-1.244 1.193-1.976 2.885-7.79 4.987-16.433 2.385-24.323-2.624-7.957-10.9-13.514-19.175-11.297-.33-15.097-25.934-23.551-37.244-18.136" fill="#155B31"/>
        <path d="M429.213 453.68c-8.027 3.844-10.137 15.036-6.673 23.23-3.643-.52-7.435 2.3-7.985 5.937-1.304 9.425 73.678 8.156 71.076.267-2.624-7.958-10.9-13.515-19.175-11.298-.33-15.097-25.934-23.552-37.243-18.136" fill="#155B31"/>
        <path d="M437.233 462.572c-5.933 2.84-7.492 11.11-4.93 17.166-2.694-.385-5.496 1.698-5.902 4.387-.964 6.964 54.446 6.027 52.522.196-1.939-5.88-8.055-9.986-14.169-8.348-.243-11.156-19.165-17.403-27.521-13.401" fill="#0A351A"/>
        <path d="M452.64 463.687c.515-4.925 1.654-10.09 4.155-14.265 3.877-1.418 9.255-1.861 16.052.786 14.37 5.596 8.584 20.144 8.584 20.144s2.613-4.29 7.838-2.61c5.225 1.677 4.851 7.273 4.851 7.273.746-1.865 6.717-5.782 13.249-4.849 6.53.932 9.517 7.647 9.517 7.647s-1.493-9.326 1.865-12.683c3.36-3.357 8.21-1.865 8.21-1.865s-4.105-5.036-4.105-13.989c0-8.953 13.25-13.057 13.25-13.057l17.548 1.207c5.04 3.4 8.627 8.078 8.749 13.666 8.274-2.216 16.55 3.34 19.175 11.297 2.601 7.89.5 16.532-2.385 24.323-.27.732-.576 1.5-1.194 1.976-.855.66-2.048.58-3.124.477-37.65-3.59-75.695 3.715-113.353.233-2.595-.24-5.458-.67-7.122-2.675-1.195-1.438-1.506-3.395-1.71-5.254a83.432 83.432 0 0 1-.05-17.782" fill="#0A351A"/>
        <path d="M459.88 467.896a3.744 3.744 0 0 1 3.376-.698c1.11.324-2.481 3.96-3.054 4.157-2.702.924-1.567-2.43-.323-3.459M430.58 474.005a3.749 3.749 0 0 1-1.29-3.204c.122-1.156 4.343 1.71 4.639 2.24 1.392 2.495-2.113 2-3.348.964M497.254 462.372a3.747 3.747 0 0 1-1.29-3.204c.121-1.155 4.342 1.712 4.639 2.24 1.392 2.495-2.113 2-3.35.964M473.449 473.836a3.745 3.745 0 0 1 3.435.298c.971.628-3.511 3.085-4.116 3.108-2.854.114-.807-2.775.68-3.406" fill="#1D8950"/>
        <path d="M437.233 462.572a3.757 3.757 0 0 1 1.029-3.296c.821-.817 2.261 4.088 2.154 4.685-.502 2.815-2.886.199-3.183-1.39M469.88 450.64a3.776 3.776 0 0 1 3.429-.49c1.09.393-2.743 3.807-3.33 3.968-2.768.757-1.413-2.525-.1-3.478M507.58 471.734a3.734 3.734 0 0 1 2.207-2.645c1.071-.438.538 4.635.212 5.144-1.535 2.402-2.749-.921-2.419-2.499M527.986 451.809a3.729 3.729 0 0 1-.589-3.393c.36-1.1 3.882 2.589 4.06 3.167.838 2.724-2.481 1.498-3.471.226" fill="#146038"/>
        <path d="M612.7 488.012s-18.326-14.357-37.052-20.123c-18.727-5.766-43.952-1.251-45.51 4.195-1.513 5.293 20.124 17.886 39.587 19.967 19.464 2.081 37.988.077 42.975-4.039" fill="#27965F"/>
        <path d="M604.66 486.617c-20.75-7.902-42.712-13.24-65.072-15.818" stroke="#38C16F" stroke-width="2" stroke-linecap="round" stroke-linejoin="round"/>
    </g>
</svg>
